<svg xmlns="http://www.w3.org/2000/svg" xmlns:xlink="http://www.w3.org/1999/xlink" viewBox="0 0 1920 720" width="1920px" height="720px"><defs><linearGradient id="c" x1="50%" x2="50%" y1="0%" y2="100%"><stop offset="0%" stop-color="#2D8FE2" stop-opacity=".05"/><stop offset="100%" stop-color="#2D8FE2" stop-opacity="0"/></linearGradient><linearGradient id="e" x1="50%" x2="50%" y1="31.091%" y2="69.483%"><stop offset="0%" stop-color="#2D8FE2" stop-opacity=".059"/><stop offset="100%" stop-color="#2D8FE2" stop-opacity="0"/></linearGradient><linearGradient id="f" x1="50%" x2="50%" y1="0%" y2="100%"><stop offset="0%" stop-color="#2D8FE2" stop-opacity=".5"/><stop offset="100%" stop-color="#2D8FE2" stop-opacity="0"/></linearGradient><linearGradient id="g" x1="50%" x2="50%" y1="0%" y2="100%"><stop offset="0%" stop-color="#2D8FE2" stop-opacity=".05"/><stop offset="100%" stop-color="#2D8FE2" stop-opacity="0"/></linearGradient><linearGradient id="i" x1="50%" x2="50%" y1="0%" y2="50%"><stop offset="0%" stop-color="#2D8FE2" stop-opacity=".059"/><stop offset="100%" stop-color="#2D8FE2" stop-opacity="0"/></linearGradient><linearGradient id="j" x1="50%" x2="50%" y1="0%" y2="100%"><stop offset="0%" stop-color="#2D8FE2" stop-opacity=".5"/><stop offset="100%" stop-color="#2D8FE2" stop-opacity="0"/></linearGradient><linearGradient id="k" x1="50%" x2="50%" y1="0%" y2="100%"><stop offset="0%" stop-color="#2D8FE2" stop-opacity=".05"/><stop offset="100%" stop-color="#2D8FE2" stop-opacity="0"/></linearGradient><linearGradient id="m" x1="50%" x2="50%" y1="25.137%" y2="87.151%"><stop offset="0%" stop-color="#2D8FE2" stop-opacity=".059"/><stop offset="100%" stop-color="#2D8FE2" stop-opacity="0"/></linearGradient><linearGradient id="n" x1="50%" x2="50%" y1="0%" y2="100%"><stop offset="0%" stop-color="#2D8FE2" stop-opacity=".5"/><stop offset="100%" stop-color="#2D8FE2" stop-opacity="0"/></linearGradient><path id="a" d="M0 0h1920v720H0z"/><path id="d" d="M4189 338C3982.757 338 3549.667 0 3152.881 0c-202.363 0-388.091 198.525-704.017 198.525-205.6 0-288.943-114.428-723.97-114.428C1328.442 84.097 1083.652 338 498.401 338H4189z"/><path id="h" d="M3544 355c-658.275 0-976.102-345-1379.023-345-391.379 0-501.867 251.767-813.488 251.767-311.62 0-292.489-36.864-633.614-36.864C376.75 224.903 71 355 71 355h3473z"/><path id="l" d="M3484 382c-203.415 0-712.634-331-1103.977-331-391.342 0-519.134 222.885-830.725 222.885s-495.942-116.777-834.142-116.777C286.096 157.108 0 382 0 382h3484z"/></defs><g fill="none" fill-rule="evenodd"><mask id="b" fill="#fff"><use xlink:href="#a"/></mask><g mask="url(#b)"><g transform="translate(-496 169)"><use fill="url(#c)" xlink:href="#d"/><use fill="url(#e)" stroke="url(#f)" stroke-width=".65" xlink:href="#d"/><use fill="url(#g)" xlink:href="#h"/><use fill="url(#i)" stroke="url(#j)" stroke-width=".65" xlink:href="#h"/><use fill="url(#k)" xlink:href="#l"/><use fill="url(#m)" stroke="url(#n)" stroke-width=".65" xlink:href="#l"/></g></g></g></svg>
