<svg height="512" viewBox="0 0 58 58" width="512" xmlns="http://www.w3.org/2000/svg"><g id="Page-1" fill="none" fill-rule="evenodd"><g id="048---Website-Question-Chat" fill-rule="nonzero"><path id="Shape" d="m9 47h-6c-1.65685425 0-3-1.3431458-3-3v-41c0-1.65685425 1.34314575-3 3-3h52c1.6568542 0 3 1.34314575 3 3v41c0 1.6568542-1.3431458 3-3 3z" fill="#b0d3f0"/><path id="Shape" d="m58 3v5h-58v-5c0-1.65685425 1.34314575-3 3-3h52c1.6568542 0 3 1.34314575 3 3z" fill="#3b97d3"/><circle id="Oval" cx="4" cy="4" fill="#e64c3c" r="1"/><circle id="Oval" cx="8" cy="4" fill="#f0c419" r="1"/><circle id="Oval" cx="12" cy="4" fill="#65ddb9" r="1"/><path id="Shape" d="m54 5h-11c-.5522847 0-1-.44771525-1-1s.4477153-1 1-1h11c.5522847 0 1 .44771525 1 1s-.4477153 1-1 1z" fill="#2980ba"/><path id="Shape" d="m49 21v28c0 1.6568542-1.3431458 3-3 3h-17l-3.7 2-7.08 3.82c-.4674689.2503801-1.0320941.236818-1.4870027-.0357174-.4549085-.2725353-.7332327-.7639834-.7329973-1.2942826v-4.49h-4c-1.6568542 0-3-1.3431458-3-3v-28c0-1.6568542 1.3431458-3 3-3h34c1.6568542 0 3 1.3431458 3 3z" fill="#ff5364"/><path id="Shape" d="m29 52-3.7 2h-2.3c-.5522847 0-1-.4477153-1-1s.4477153-1 1-1z" fill="#df4d60"/><path id="Shape" d="m20 53c0 .5522847-.4477153 1-1 1h-3v-2h3c.5522847 0 1 .4477153 1 1z" fill="#df4d60"/><path id="Shape" d="m41 44c-.5522847 0-1-.4477153-1-1v-2c0-.5522847.4477153-1 1-1 1.1045695 0 2-.8954305 2-2s-.8954305-2-2-2-2 .8954305-2 2c0 .5522847-.4477153 1-1 1s-1-.4477153-1-1c.0000087-2.078685 1.5921856-3.8109362 3.6635023-3.9858044 2.0713166-.1748682 3.9313743 1.2659326 4.2798795 3.3151948.3485053 2.0492621-.9307037 4.0239383-2.9433818 4.5436096v1.127c0 .5522847-.4477153 1-1 1z" fill="#ecf0f1"/><circle id="Oval" cx="41" cy="47" fill="#ecf0f1" r="1"/><g fill="#f0c419"><path id="Shape" d="m34 46h-2c-.5522847 0-1-.4477153-1-1s.4477153-1 1-1h2c.5522847 0 1 .4477153 1 1s-.4477153 1-1 1z"/><path id="Shape" d="m28 46h-14c-.5522847 0-1-.4477153-1-1s.4477153-1 1-1h14c.5522847 0 1 .4477153 1 1s-.4477153 1-1 1z"/><path id="Shape" d="m17 41h-3c-.5522847 0-1-.4477153-1-1s.4477153-1 1-1h3c.5522847 0 1 .4477153 1 1s-.4477153 1-1 1z"/><path id="Shape" d="m34 41h-13c-.5522847 0-1-.4477153-1-1s.4477153-1 1-1h13c.5522847 0 1 .4477153 1 1s-.4477153 1-1 1z"/><path id="Shape" d="m34 36h-20c-.5522847 0-1-.4477153-1-1s.4477153-1 1-1h20c.5522847 0 1 .4477153 1 1s-.4477153 1-1 1z"/><path id="Shape" d="m17 31h-3c-.5522847 0-1-.4477153-1-1s.4477153-1 1-1h3c.5522847 0 1 .4477153 1 1s-.4477153 1-1 1z"/><path id="Shape" d="m45 31h-24c-.5522847 0-1-.4477153-1-1s.4477153-1 1-1h24c.5522847 0 1 .4477153 1 1s-.4477153 1-1 1z"/><path id="Shape" d="m45 26h-31c-.5522847 0-1-.4477153-1-1s.4477153-1 1-1h31c.5522847 0 1 .4477153 1 1s-.4477153 1-1 1z"/></g></g></g></svg>