<svg xmlns="http://www.w3.org/2000/svg" xmlns:xlink="http://www.w3.org/1999/xlink" viewBox="0 0 454.99 451.1"><defs><style>.cls-1{isolation:isolate;}.cls-2{fill:url(#linear-gradient);}.cls-3{fill:#f1f2f2;}.cls-4,.cls-8{fill:#fff;}.cls-5{fill:#fff4ff;}.cls-6{fill:#c2cae8;}.cls-7{opacity:0.6;}.cls-119,.cls-123,.cls-56,.cls-7{mix-blend-mode:multiply;}.cls-8{opacity:0;}.cls-9{fill:#fcfcfc;opacity:0.03;}.cls-10{fill:#f8f8f9;opacity:0.06;}.cls-11{fill:#f5f5f7;opacity:0.1;}.cls-12,.cls-132{fill:#f2f2f4;}.cls-12{opacity:0.13;}.cls-13{fill:#eeeef1;opacity:0.16;}.cls-14{fill:#ebebee;opacity:0.19;}.cls-15{fill:#e8e8eb;opacity:0.23;}.cls-135,.cls-16{fill:#e4e4e9;}.cls-16{opacity:0.26;}.cls-17{fill:#e1e1e6;opacity:0.29;}.cls-18{fill:#dedee3;opacity:0.32;}.cls-19{fill:#dadae0;opacity:0.35;}.cls-20{fill:#d7d7dd;opacity:0.39;}.cls-21{fill:#d4d4db;opacity:0.42;}.cls-22{fill:#d0d0d8;opacity:0.45;}.cls-23{fill:#cdcdd5;opacity:0.48;}.cls-24{fill:#cacad2;opacity:0.52;}.cls-25{fill:#c7c7cf;opacity:0.55;}.cls-26{fill:#c3c3cc;opacity:0.58;}.cls-27{fill:#c0c0ca;opacity:0.61;}.cls-28{fill:#bdbdc7;opacity:0.65;}.cls-29{fill:#b9b9c4;opacity:0.68;}.cls-30{fill:#b6b6c1;opacity:0.71;}.cls-31{fill:#b3b3be;opacity:0.74;}.cls-32{fill:#afafbc;opacity:0.77;}.cls-33{fill:#acacb9;opacity:0.81;}.cls-34{fill:#a9a9b6;opacity:0.84;}.cls-35{fill:#a5a5b3;opacity:0.87;}.cls-36{fill:#a2a2b0;opacity:0.9;}.cls-37{fill:#9f9fae;opacity:0.94;}.cls-38{fill:#9b9bab;opacity:0.97;}.cls-39{fill:#9898a8;}.cls-40{fill:url(#linear-gradient-2);}.cls-41{fill:url(#linear-gradient-3);}.cls-42{fill:url(#linear-gradient-4);}.cls-43{fill:url(#linear-gradient-5);}.cls-44{fill:url(#linear-gradient-6);}.cls-45{fill:url(#linear-gradient-7);}.cls-46{fill:#f8f9fc;}.cls-47{fill:url(#linear-gradient-8);}.cls-48{fill:url(#linear-gradient-9);}.cls-49{fill:url(#linear-gradient-10);}.cls-50{fill:url(#linear-gradient-11);}.cls-51{fill:url(#linear-gradient-12);}.cls-52{fill:url(#linear-gradient-13);}.cls-53{fill:url(#linear-gradient-14);}.cls-54{fill:url(#linear-gradient-15);}.cls-55{fill:url(#linear-gradient-16);}.cls-56{opacity:0.4;}.cls-57{fill:#f764e0;}.cls-58{fill:url(#linear-gradient-17);}.cls-59{fill:url(#linear-gradient-18);}.cls-60{fill:url(#linear-gradient-19);}.cls-61{fill:#80cfff;}.cls-62{fill:url(#linear-gradient-20);}.cls-63{fill:url(#linear-gradient-21);}.cls-64{fill:url(#linear-gradient-22);}.cls-65{opacity:0.2;}.cls-66{fill:#fbfbfd;opacity:0.02;}.cls-67{fill:#f7f8fb;opacity:0.04;}.cls-68{fill:#f2f4fa;opacity:0.06;}.cls-69{fill:#eef0f8;opacity:0.08;}.cls-70{fill:#eaecf6;opacity:0.1;}.cls-71{fill:#e6e9f4;opacity:0.12;}.cls-72{fill:#e1e5f2;opacity:0.14;}.cls-73{fill:#dde1f0;opacity:0.16;}.cls-74{fill:#d9deef;opacity:0.18;}.cls-75{fill:#d5daed;opacity:0.2;}.cls-76{fill:#d1d6eb;opacity:0.22;}.cls-77{fill:#ccd3e9;opacity:0.24;}.cls-78{fill:#c8cfe7;opacity:0.25;}.cls-79{fill:#c4cbe5;opacity:0.27;}.cls-80{fill:#c0c7e4;opacity:0.29;}.cls-81{fill:#bcc4e2;opacity:0.31;}.cls-82{fill:#b7c0e0;opacity:0.33;}.cls-83{fill:#b3bcde;opacity:0.35;}.cls-84{fill:#afb9dc;opacity:0.37;}.cls-85{fill:#abb5db;opacity:0.39;}.cls-86{fill:#a6b1d9;opacity:0.41;}.cls-87{fill:#a2add7;opacity:0.43;}.cls-88{fill:#9eaad5;opacity:0.45;}.cls-89{fill:#9aa6d3;opacity:0.47;}.cls-90{fill:#96a2d1;opacity:0.49;}.cls-91{fill:#919fd0;opacity:0.51;}.cls-92{fill:#8d9bce;opacity:0.53;}.cls-93{fill:#8997cc;opacity:0.55;}.cls-94{fill:#8594ca;opacity:0.57;}.cls-95{fill:#8190c8;opacity:0.59;}.cls-96{fill:#7c8cc6;opacity:0.61;}.cls-97{fill:#7888c5;opacity:0.63;}.cls-98{fill:#7485c3;opacity:0.65;}.cls-99{fill:#7081c1;opacity:0.67;}.cls-100{fill:#6b7dbf;opacity:0.69;}.cls-101{fill:#677abd;opacity:0.71;}.cls-102{fill:#6376bc;opacity:0.73;}.cls-103{fill:#5f72ba;opacity:0.75;}.cls-104{fill:#5b6eb8;opacity:0.76;}.cls-105{fill:#566bb6;opacity:0.78;}.cls-106{fill:#5267b4;opacity:0.8;}.cls-107{fill:#4e63b2;opacity:0.82;}.cls-108{fill:#4a60b1;opacity:0.84;}.cls-109{fill:#465caf;opacity:0.86;}.cls-110{fill:#4158ad;opacity:0.88;}.cls-111{fill:#3d55ab;opacity:0.9;}.cls-112{fill:#3951a9;opacity:0.92;}.cls-113{fill:#354da7;opacity:0.94;}.cls-114{fill:#3049a6;opacity:0.96;}.cls-115{fill:#2c46a4;opacity:0.98;}.cls-116{fill:#2842a2;}.cls-117{fill:#adb9e0;}.cls-118{fill:url(#linear-gradient-23);}.cls-119,.cls-123{opacity:0.7;}.cls-119{fill:url(#radial-gradient);}.cls-120{fill:#48486a;}.cls-121{fill:#5c629e;}.cls-122{fill:url(#linear-gradient-24);}.cls-123{fill:url(#radial-gradient-2);}.cls-124{fill:#77d2ff;}.cls-125{fill:#51acd9;}.cls-126{fill:#9013b9;}.cls-127{fill:#6a0093;}.cls-128{fill:#591bc2;}.cls-129{fill:#26008f;}.cls-130{fill:#fbfbfb;opacity:0.02;}.cls-131{fill:#f6f6f8;opacity:0.05;}.cls-132{opacity:0.07;}.cls-133{fill:#ededf0;opacity:0.1;}.cls-134{fill:#e9e9ed;opacity:0.12;}.cls-135{opacity:0.15;}.cls-136{fill:#e0e0e6;opacity:0.17;}.cls-137{fill:#dbdbe2;opacity:0.2;}.cls-138{fill:#d7d7de;opacity:0.22;}.cls-139{fill:#d2d2db;opacity:0.24;}.cls-140{fill:#ceced7;opacity:0.27;}.cls-141{fill:#c9c9d3;opacity:0.29;}.cls-142{fill:#c5c5d0;opacity:0.32;}.cls-143{fill:#c1c1cc;opacity:0.34;}.cls-144{fill:#bcbcc8;opacity:0.37;}.cls-145{fill:#b8b8c5;opacity:0.39;}.cls-146{fill:#b3b3c1;opacity:0.41;}.cls-147{fill:#afafbe;opacity:0.44;}.cls-148{fill:#aaaaba;opacity:0.46;}.cls-149{fill:#a6a6b6;opacity:0.49;}.cls-150{fill:#a1a1b3;opacity:0.51;}.cls-151{fill:#9d9daf;opacity:0.54;}.cls-152{fill:#9898ab;opacity:0.56;}.cls-153{fill:#9494a8;opacity:0.59;}.cls-154{fill:#8f8fa4;opacity:0.61;}.cls-155{fill:#8b8ba1;opacity:0.63;}.cls-156{fill:#86869d;opacity:0.66;}.cls-157{fill:#828299;opacity:0.68;}.cls-158{fill:#7e7e96;opacity:0.71;}.cls-159{fill:#797992;opacity:0.73;}.cls-160{fill:#75758e;opacity:0.76;}.cls-161{fill:#70708b;opacity:0.78;}.cls-162{fill:#6c6c87;opacity:0.8;}.cls-163{fill:#676783;opacity:0.83;}.cls-164{fill:#636380;opacity:0.85;}.cls-165{fill:#5e5e7c;opacity:0.88;}.cls-166{fill:#5a5a79;opacity:0.9;}.cls-167{fill:#555575;opacity:0.93;}.cls-168{fill:#515171;opacity:0.95;}.cls-169{fill:#4c4c6e;opacity:0.98;}.cls-170{fill:#ffc107;}.cls-171{fill:url(#linear-gradient-25);}.cls-172{fill:url(#linear-gradient-26);}.cls-173{fill:url(#linear-gradient-27);}.cls-174{fill:url(#linear-gradient-28);}.cls-175{fill:url(#linear-gradient-29);}.cls-176{fill:#d7e5f4;opacity:0.3;}</style><linearGradient id="linear-gradient" x1="213.41" y1="-4.95" x2="394.97" y2="309.52" gradientUnits="userSpaceOnUse"><stop offset="0.35" stop-color="#99a7d8"/><stop offset="0.98" stop-color="#d1d8ec"/><stop offset="1" stop-color="#d3daed"/></linearGradient><linearGradient id="linear-gradient-2" x1="186.03" y1="119.05" x2="258.23" y2="119.05" gradientUnits="userSpaceOnUse"><stop offset="0.22" stop-color="#a5cbfa"/><stop offset="0.6" stop-color="#b3abff"/></linearGradient><linearGradient id="linear-gradient-3" x1="194.8" y1="67.35" x2="252.99" y2="168.14" gradientUnits="userSpaceOnUse"><stop offset="0.48" stop-color="#ffc107"/><stop offset="1" stop-color="#ff9800"/></linearGradient><linearGradient id="linear-gradient-4" x1="185.6" y1="119.88" x2="254.26" y2="119.88" xlink:href="#linear-gradient-3"/><linearGradient id="linear-gradient-5" x1="184.48" y1="120.63" x2="253.13" y2="120.63" gradientUnits="userSpaceOnUse"><stop offset="0" stop-color="#ff9800"/><stop offset="1" stop-color="#ffc107"/></linearGradient><linearGradient id="linear-gradient-6" x1="204.72" y1="227.25" x2="262.91" y2="328.04" gradientUnits="userSpaceOnUse"><stop offset="0" stop-color="#d3daed"/><stop offset="1" stop-color="#f9f7f9"/></linearGradient><linearGradient id="linear-gradient-7" x1="195.53" y1="279.79" x2="264.18" y2="279.79" xlink:href="#linear-gradient-6"/><linearGradient id="linear-gradient-8" x1="229.19" y1="298.78" x2="236.45" y2="298.78" gradientUnits="userSpaceOnUse"><stop offset="0" stop-color="#4b4b71"/><stop offset="1" stop-color="#5c629e"/></linearGradient><linearGradient id="linear-gradient-9" x1="238.66" y1="304.25" x2="245.92" y2="304.25" xlink:href="#linear-gradient-8"/><linearGradient id="linear-gradient-10" x1="248.26" y1="309.8" x2="255.52" y2="309.8" xlink:href="#linear-gradient-8"/><linearGradient id="linear-gradient-11" x1="229.19" y1="263.65" x2="235.32" y2="263.65" xlink:href="#linear-gradient-8"/><linearGradient id="linear-gradient-12" x1="202.38" y1="262.46" x2="224.6" y2="262.46" xlink:href="#linear-gradient-8"/><linearGradient id="linear-gradient-13" x1="230.71" y1="279.87" x2="236.45" y2="279.87" xlink:href="#linear-gradient-8"/><linearGradient id="linear-gradient-14" x1="237.31" y1="283.52" x2="241.47" y2="283.52" xlink:href="#linear-gradient-8"/><linearGradient id="linear-gradient-15" x1="242.29" y1="289.07" x2="251.89" y2="289.07" xlink:href="#linear-gradient-8"/><linearGradient id="linear-gradient-16" x1="253.25" y1="291.98" x2="256.32" y2="291.98" xlink:href="#linear-gradient-8"/><linearGradient id="linear-gradient-17" x1="273.09" y1="24.91" x2="303.12" y2="76.93" gradientUnits="userSpaceOnUse"><stop offset="0" stop-color="#f9f7f9"/><stop offset="1" stop-color="#d3daed"/></linearGradient><linearGradient id="linear-gradient-18" x1="268.13" y1="52.56" x2="300.34" y2="52.56" xlink:href="#linear-gradient-17"/><linearGradient id="linear-gradient-19" x1="275.69" y1="53.49" x2="292.19" y2="53.49" xlink:href="#linear-gradient-8"/><linearGradient id="linear-gradient-20" x1="351.31" y1="95.46" x2="380.86" y2="146.63" gradientUnits="userSpaceOnUse"><stop offset="0" stop-color="#5c629e"/><stop offset="1" stop-color="#48486a"/></linearGradient><linearGradient id="linear-gradient-21" x1="345.61" y1="123.4" x2="377.83" y2="123.4" xlink:href="#linear-gradient-20"/><linearGradient id="linear-gradient-22" x1="344.86" y1="123.78" x2="377.08" y2="123.78" xlink:href="#linear-gradient-8"/><linearGradient id="linear-gradient-23" x1="14.27" y1="267.28" x2="109.41" y2="267.28" gradientUnits="userSpaceOnUse"><stop offset="0" stop-color="#d3daed"/><stop offset="1" stop-color="#99a7d8"/></linearGradient><radialGradient id="radial-gradient" cx="61.84" cy="8281.24" r="30.1" gradientTransform="translate(0 -5429.22) scale(1 0.69)" gradientUnits="userSpaceOnUse"><stop offset="0.15" stop-color="#9a9ec3"/><stop offset="0.2" stop-color="#a2a6c8"/><stop offset="0.44" stop-color="#cacce0"/><stop offset="0.67" stop-color="#e7e8f1"/><stop offset="0.86" stop-color="#f9f9fb"/><stop offset="1" stop-color="#fff"/></radialGradient><linearGradient id="linear-gradient-24" x1="303.33" y1="373.47" x2="392.97" y2="373.47" gradientUnits="userSpaceOnUse"><stop offset="0" stop-color="#99a7d8"/><stop offset="1" stop-color="#d3daed"/></linearGradient><radialGradient id="radial-gradient-2" cx="348.15" cy="8427.65" r="30.1" xlink:href="#radial-gradient"/><linearGradient id="linear-gradient-25" x1="164.53" y1="381.14" x2="256.52" y2="381.14" xlink:href="#linear-gradient-20"/><linearGradient id="linear-gradient-26" x1="184.76" y1="364.27" x2="198.09" y2="372.31" xlink:href="#linear-gradient-3"/><linearGradient id="linear-gradient-27" x1="193.82" y1="349.27" x2="207.15" y2="357.31" xlink:href="#linear-gradient-3"/><linearGradient id="linear-gradient-28" x1="189.33" y1="356.71" x2="202.66" y2="364.75" xlink:href="#linear-gradient-3"/><linearGradient id="linear-gradient-29" x1="182.64" y1="367.8" x2="195.96" y2="375.84" xlink:href="#linear-gradient-3"/></defs><title>Web app development</title><g class="cls-1"><g id="Layer_2" data-name="Layer 2"><g id="Layer_1-2" data-name="Layer 1"><path class="cls-2" d="M390.52,96.58,244.25,12.13c-2.95-1.7-5.58-1.59-7.25,0l-7.2,4.28,5.31,10.92V237.86c0,5.81,4.11,12.93,9.14,15.83l140.19,80.94,4.36,9,7.85-4.68a4.66,4.66,0,0,0,.75-.45h0c1.4-1.05,2.25-3,2.25-5.6V112.42C399.66,106.61,395.55,99.49,390.52,96.58Z"/><path class="cls-3" d="M392.18,337.39c0,5.81-4.11,8.18-9.14,5.28L236.76,258.21c-5-2.9-9.14-10-9.14-15.83V21.93c0-5.8,4.11-8.18,9.14-5.28L383,101.11c5,2.9,9.14,10,9.14,15.83Z"/><path class="cls-4" d="M240.94,32.36c0,1.41-1,2-2.21,1.27a4.86,4.86,0,0,1-2.21-3.82c0-1.41,1-2,2.21-1.28A4.88,4.88,0,0,1,240.94,32.36Zm4.27-.09c-1.22-.7-2.21-.13-2.21,1.28a4.9,4.9,0,0,0,2.21,3.83c1.22.7,2.21.13,2.21-1.28A4.9,4.9,0,0,0,245.21,32.27ZM251.69,36c-1.22-.71-2.21-.14-2.21,1.27a4.91,4.91,0,0,0,2.21,3.83c1.23.7,2.22.13,2.21-1.28A4.84,4.84,0,0,0,251.69,36Z"/><path class="cls-5" d="M251,172.23a6.46,6.46,0,0,0-2.91-5c-1.59-.92-2.9-.16-2.9,1.68a6.48,6.48,0,0,0,2.9,5C249.71,174.83,251,174.07,251,172.23Z"/><path class="cls-5" d="M251,101.16a6.44,6.44,0,0,0-2.91-5c-1.59-.92-2.9-.16-2.9,1.68a6.48,6.48,0,0,0,2.9,5C249.71,103.76,251,103,251,101.16Z"/><path class="cls-6" d="M347.14,164.25a3.21,3.21,0,0,0,1.47,2.55l23.85,13.78c.82.47,1.48.08,1.48-.85a3.26,3.26,0,0,0-1.48-2.56L348.61,163.4C347.79,162.93,347.14,163.31,347.14,164.25Z"/><path class="cls-6" d="M372.46,183.32l-23.85-13.77c-.82-.47-1.47-.09-1.47.85a3.23,3.23,0,0,0,1.47,2.55l23.85,13.77c.82.47,1.48.09,1.48-.85A3.27,3.27,0,0,0,372.46,183.32Z"/><path class="cls-6" d="M348.61,179.42,365,188.86c.81.47,1.47.09,1.47-.85a3.26,3.26,0,0,0-1.47-2.55L348.61,176c-.82-.47-1.47-.09-1.48.85A3.26,3.26,0,0,0,348.61,179.42Z"/><path class="cls-6" d="M254,76.23a2.65,2.65,0,0,0-1.2-2.08l-10.18-5.88c-.67-.38-1.21-.07-1.21.69a2.65,2.65,0,0,0,1.21,2.09l10.18,5.88C253.46,77.31,254,77,254,76.23Z"/><path class="cls-6" d="M242.62,66.76l10.18,5.88c.66.39,1.2.07,1.2-.69a2.67,2.67,0,0,0-1.2-2.09L242.62,64c-.67-.38-1.21-.07-1.21.7A2.64,2.64,0,0,0,242.62,66.76Z"/><path class="cls-6" d="M242.62,62.48l10.18,5.88c.66.38,1.2.07,1.2-.7a2.68,2.68,0,0,0-1.2-2.09l-10.18-5.88c-.67-.38-1.21-.07-1.21.7A2.67,2.67,0,0,0,242.62,62.48Z"/><path class="cls-6" d="M293.66,134.8l-47.33-27.33c-.82-.47-1.48-.08-1.48.86a3.26,3.26,0,0,0,1.48,2.55l47.33,27.32c.81.47,1.48.09,1.48-.84A3.26,3.26,0,0,0,293.66,134.8Z"/><path class="cls-6" d="M293.66,142.66l-47.33-27.33c-.82-.47-1.48-.09-1.48.86a3.26,3.26,0,0,0,1.48,2.55l47.33,27.32c.82.47,1.48.09,1.48-.85A3.24,3.24,0,0,0,293.66,142.66Z"/><path class="cls-6" d="M293.66,149.77l-47.33-27.32c-.82-.47-1.48-.09-1.48.85a3.26,3.26,0,0,0,1.48,2.55l47.33,27.32c.82.47,1.48.09,1.48-.84A3.25,3.25,0,0,0,293.66,149.77Z"/><path class="cls-6" d="M246.33,133.33l18.93,10.93c.81.47,1.47.09,1.47-.85a3.26,3.26,0,0,0-1.47-2.55l-18.93-10.93c-.82-.47-1.48-.09-1.48.85A3.27,3.27,0,0,0,246.33,133.33Z"/><path class="cls-6" d="M293.66,205.87l-47.33-27.32c-.82-.47-1.48-.09-1.48.85a3.24,3.24,0,0,0,1.48,2.55l47.33,27.32c.81.47,1.48.1,1.48-.84A3.26,3.26,0,0,0,293.66,205.87Z"/><path class="cls-6" d="M293.66,213.73l-47.33-27.32c-.82-.47-1.48-.09-1.48.85a3.26,3.26,0,0,0,1.48,2.55l47.33,27.33c.82.47,1.48.08,1.48-.85A3.26,3.26,0,0,0,293.66,213.73Z"/><path class="cls-6" d="M293.66,220.84l-47.33-27.32c-.82-.47-1.48-.09-1.48.85a3.24,3.24,0,0,0,1.48,2.55l47.33,27.33c.82.47,1.48.08,1.48-.85A3.26,3.26,0,0,0,293.66,220.84Z"/><path class="cls-6" d="M265.26,211.93,246.33,201c-.82-.47-1.48-.09-1.48.85a3.29,3.29,0,0,0,1.48,2.56l18.93,10.92c.81.47,1.47.09,1.47-.85A3.26,3.26,0,0,0,265.26,211.93Z"/><path class="cls-6" d="M372.46,248.24l-23.85-13.77c-.82-.47-1.47-.09-1.47.85a3.19,3.19,0,0,0,1.47,2.55l23.85,13.78c.82.47,1.48.09,1.48-.85A3.26,3.26,0,0,0,372.46,248.24Z"/><path class="cls-6" d="M372.46,254.39l-23.85-13.77c-.82-.47-1.47-.09-1.47.85a3.23,3.23,0,0,0,1.47,2.55l23.85,13.77c.82.47,1.48.09,1.48-.85A3.27,3.27,0,0,0,372.46,254.39Z"/><path class="cls-6" d="M365,256.53l-16.36-9.44c-.82-.47-1.47-.09-1.48.85a3.24,3.24,0,0,0,1.48,2.55L365,259.93c.81.47,1.47.09,1.47-.85A3.26,3.26,0,0,0,365,256.53Z"/><path class="cls-6" d="M337,218.41l-14.72-8.5c-1.89-1.09-3.43-.2-3.43,2v17.42a7.6,7.6,0,0,0,3.43,6l14.72,8.5c1.9,1.1,3.44.2,3.44-2V224.36A7.58,7.58,0,0,0,337,218.41Zm-.94,2.86-6.35,3.11-6.35-10.44Zm-14.27,7V216l5.75,9.46Zm1.24,4,6.68-3.28,6.68,11Zm14.46,4.89L331.88,228l5.61-2.75Z"/><path class="cls-6" d="M339,254.49l-17.3-10c-.81-.47-1.47-.09-1.47.85a3.26,3.26,0,0,0,1.47,2.55l17.3,10c.81.47,1.47.09,1.47-.85A3.26,3.26,0,0,0,339,254.49Z"/><path class="cls-6" d="M359.11,231.16c-.81-.47-1.47-.09-1.47.85a3.26,3.26,0,0,0,1.47,2.55l3.19,1.84c.81.47,1.48.09,1.47-.85A3.26,3.26,0,0,0,362.3,233Z"/><path class="cls-6" d="M348.61,225.09c-.81-.47-1.47-.09-1.47.85a3.28,3.28,0,0,0,1.47,2.56l6.38,3.68c.81.47,1.47.09,1.47-.85a3.28,3.28,0,0,0-1.47-2.56Z"/><path class="cls-6" d="M337,147.34l-14.72-8.5c-1.89-1.09-3.43-.2-3.43,2v17.42a7.6,7.6,0,0,0,3.43,5.95L337,172.7c1.9,1.09,3.44.2,3.44-2V153.29A7.58,7.58,0,0,0,337,147.34Zm-.94,2.86-6.35,3.11-6.35-10.44Zm-14.27,7V144.92l5.75,9.46Zm1.24,4,6.68-3.28,6.68,11Zm14.46,4.89-5.61-9.24,5.61-2.75Z"/><path class="cls-6" d="M339,183.41l-17.3-10c-.81-.47-1.47-.09-1.47.85a3.26,3.26,0,0,0,1.47,2.55l17.3,10c.81.47,1.47.09,1.47-.85A3.28,3.28,0,0,0,339,183.41Z"/><path class="cls-6" d="M359.11,163.49l3.19,1.84c.81.47,1.48.09,1.47-.85a3.26,3.26,0,0,0-1.47-2.55l-3.19-1.84c-.81-.47-1.47-.09-1.47.85A3.26,3.26,0,0,0,359.11,163.49Z"/><path class="cls-6" d="M348.61,157.42l6.38,3.69c.81.46,1.47.09,1.47-.86A3.27,3.27,0,0,0,355,157.7L348.61,154c-.81-.47-1.47-.09-1.47.85A3.26,3.26,0,0,0,348.61,157.42Z"/><g class="cls-7"><path class="cls-8" d="M311.19,178.23c0,4.23-3,6-6.66,3.84L224.74,136a14.74,14.74,0,0,1-6.66-11.53V56.1c0-4.23,3-6,6.66-3.84l79.79,46.07a14.77,14.77,0,0,1,6.66,11.53Z"/><path class="cls-9" d="M310.12,176.82c0,4.14-2.93,5.83-6.51,3.76l-78-45a14.47,14.47,0,0,1-6.51-11.27V57.51c0-4.14,2.93-5.83,6.51-3.76l78,45A14.43,14.43,0,0,1,310.12,110Z"/><path class="cls-10" d="M309.05,175.42c0,4-2.86,5.69-6.35,3.67l-76.13-44a14.15,14.15,0,0,1-6.36-11V58.91c0-4,2.86-5.69,6.36-3.67L302.7,99.19a14.11,14.11,0,0,1,6.35,11Z"/><path class="cls-11" d="M308,174c0,3.94-2.79,5.55-6.2,3.58l-74.29-42.89A13.78,13.78,0,0,1,221.28,124V60.31c0-3.94,2.79-5.55,6.21-3.58l74.29,42.89a13.77,13.77,0,0,1,6.2,10.75Z"/><path class="cls-12" d="M306.91,172.62c0,3.84-2.72,5.41-6,3.49L228.4,134.27a13.43,13.43,0,0,1-6.05-10.47V61.71c0-3.84,2.72-5.41,6.05-3.49l72.47,41.84a13.42,13.42,0,0,1,6,10.47Z"/><path class="cls-13" d="M305.84,171.21c0,3.75-2.65,5.28-5.89,3.41l-70.63-40.78a13.09,13.09,0,0,1-5.9-10.21V63.11c0-3.74,2.66-5.27,5.9-3.4L300,100.49a13.08,13.08,0,0,1,5.89,10.21Z"/><path class="cls-14" d="M304.78,169.81c0,3.65-2.59,5.14-5.75,3.32l-68.8-39.72a12.77,12.77,0,0,1-5.74-10V64.52c0-3.65,2.59-5.14,5.74-3.32L299,100.92a12.76,12.76,0,0,1,5.75,10Z"/><path class="cls-15" d="M303.71,168.41c0,3.55-2.52,5-5.59,3.23l-67-38.66a12.44,12.44,0,0,1-5.59-9.69V65.92c0-3.55,2.52-5,5.59-3.23l67,38.66a12.44,12.44,0,0,1,5.59,9.69Z"/><path class="cls-16" d="M302.64,167c0,3.45-2.45,4.86-5.44,3.14l-65.13-37.61a12,12,0,0,1-5.44-9.41V67.32c0-3.45,2.45-4.86,5.44-3.14l65.13,37.61a12,12,0,0,1,5.44,9.41Z"/><path class="cls-17" d="M301.57,165.61c0,3.35-2.38,4.72-5.29,3L233,132.11A11.74,11.74,0,0,1,227.7,123V68.72c0-3.35,2.38-4.73,5.28-3l63.3,36.55a11.73,11.73,0,0,1,5.29,9.15Z"/><path class="cls-18" d="M300.5,164.2c0,3.26-2.31,4.6-5.13,3L233.9,131.68a11.39,11.39,0,0,1-5.13-8.89V70.13c0-3.26,2.31-4.6,5.13-3l61.47,35.49a11.39,11.39,0,0,1,5.13,8.89Z"/><path class="cls-19" d="M299.43,162.8c0,3.16-2.24,4.46-5,2.87l-59.63-34.43a11,11,0,0,1-5-8.62V71.53c0-3.16,2.24-4.46,5-2.88l59.63,34.44a11,11,0,0,1,5,8.62Z"/><path class="cls-20" d="M298.36,161.4c0,3.06-2.17,4.32-4.82,2.78l-57.81-33.37a10.7,10.7,0,0,1-4.82-8.35V72.93c0-3.06,2.17-4.32,4.82-2.79l57.81,33.38a10.7,10.7,0,0,1,4.82,8.36Z"/><path class="cls-21" d="M297.29,160c0,3-2.1,4.18-4.67,2.69l-56-32.31a10.36,10.36,0,0,1-4.67-8.09v-48c0-3,2.1-4.18,4.67-2.69l56,32.31a10.36,10.36,0,0,1,4.67,8.09Z"/><path class="cls-22" d="M296.22,158.59c0,2.87-2,4-4.52,2.61L237.56,130a10.08,10.08,0,0,1-4.52-7.83V75.74c0-2.87,2-4,4.52-2.61l54.14,31.25a10,10,0,0,1,4.52,7.83Z"/><path class="cls-23" d="M295.15,157.19c0,2.77-2,3.91-4.36,2.52l-52.31-30.2a9.68,9.68,0,0,1-4.37-7.56V77.14c0-2.78,2-3.91,4.37-2.52l52.31,30.2a9.67,9.67,0,0,1,4.36,7.56Z"/><path class="cls-24" d="M294.08,155.79c0,2.68-1.89,3.77-4.21,2.43L239.4,129.08a9.35,9.35,0,0,1-4.22-7.3V78.54c0-2.68,1.9-3.77,4.22-2.43l50.47,29.14a9.34,9.34,0,0,1,4.21,7.3Z"/><path class="cls-25" d="M293,154.39c0,2.58-1.82,3.63-4.06,2.34l-48.64-28.08a9,9,0,0,1-4.06-7V79.94c0-2.58,1.83-3.63,4.06-2.34L289,105.68a9,9,0,0,1,4.06,7Z"/><path class="cls-26" d="M292,153c0,2.49-1.76,3.5-3.91,2.26l-46.81-27a8.67,8.67,0,0,1-3.91-6.77V81.34c0-2.48,1.76-3.49,3.91-2.25l46.81,27a8.67,8.67,0,0,1,3.91,6.77Z"/><path class="cls-27" d="M290.88,151.58c0,2.39-1.69,3.36-3.76,2.17l-45-26a8.3,8.3,0,0,1-3.76-6.5V82.75c0-2.39,1.69-3.36,3.76-2.17l45,26a8.32,8.32,0,0,1,3.76,6.5Z"/><path class="cls-28" d="M289.81,150.18c0,2.29-1.62,3.22-3.61,2.08l-43.14-24.91a8,8,0,0,1-3.6-6.24v-37c0-2.29,1.62-3.22,3.6-2.08L286.2,107a8,8,0,0,1,3.61,6.24Z"/><path class="cls-29" d="M288.74,148.78c0,2.19-1.55,3.08-3.45,2L244,126.92a7.65,7.65,0,0,1-3.45-6V85.55c0-2.19,1.55-3.08,3.45-2l41.31,23.85a7.65,7.65,0,0,1,3.45,6Z"/><path class="cls-30" d="M287.67,147.38c0,2.09-1.48,2.94-3.3,1.9l-39.48-22.79a7.33,7.33,0,0,1-3.29-5.71V87c0-2.09,1.48-3,3.29-1.9l39.48,22.79a7.34,7.34,0,0,1,3.3,5.71Z"/><path class="cls-31" d="M286.6,146c0,2-1.41,2.82-3.14,1.82l-37.65-21.74a6.94,6.94,0,0,1-3.14-5.44V88.36c0-2,1.41-2.82,3.14-1.82l37.65,21.74a7,7,0,0,1,3.14,5.44Z"/><path class="cls-32" d="M285.53,144.57c0,1.9-1.34,2.68-3,1.73l-35.81-20.68a6.62,6.62,0,0,1-3-5.18V89.76c0-1.9,1.34-2.68,3-1.73l35.81,20.68a6.65,6.65,0,0,1,3,5.18Z"/><path class="cls-33" d="M284.46,143.17c0,1.8-1.28,2.54-2.84,1.64l-34-19.62a6.28,6.28,0,0,1-2.83-4.92V91.16c0-1.8,1.27-2.54,2.83-1.64l34,19.62a6.3,6.3,0,0,1,2.84,4.92Z"/><path class="cls-34" d="M283.39,141.77c0,1.7-1.21,2.4-2.68,1.55l-32.15-18.56a6,6,0,0,1-2.68-4.65V92.56c0-1.7,1.2-2.4,2.68-1.55l32.15,18.56a6,6,0,0,1,2.68,4.65Z"/><path class="cls-35" d="M282.32,140.36c0,1.61-1.14,2.27-2.53,1.47l-30.32-17.51a5.63,5.63,0,0,1-2.53-4.38V94c0-1.61,1.14-2.27,2.53-1.46L279.79,110a5.6,5.6,0,0,1,2.53,4.38Z"/><path class="cls-36" d="M281.25,139c0,1.51-1.07,2.13-2.38,1.37l-28.48-16.44a5.27,5.27,0,0,1-2.38-4.12V95.37c0-1.51,1.07-2.13,2.38-1.37l28.48,16.44a5.28,5.28,0,0,1,2.38,4.12Z"/><path class="cls-37" d="M280.18,137.56c0,1.41-1,2-2.22,1.28l-26.65-15.38a4.93,4.93,0,0,1-2.23-3.86V96.77c0-1.41,1-2,2.23-1.28L278,110.87a5,5,0,0,1,2.22,3.86Z"/><path class="cls-38" d="M279.12,136.16c0,1.31-.94,1.85-2.08,1.19L252.22,123a4.57,4.57,0,0,1-2.07-3.58V98.17c0-1.31.93-1.85,2.07-1.19L277,111.31a4.58,4.58,0,0,1,2.08,3.58Z"/><path class="cls-39" d="M278.05,134.76c0,1.22-.87,1.71-1.92,1.1l-23-13.27a4.27,4.27,0,0,1-1.92-3.32V99.57c0-1.21.87-1.71,1.92-1.1l23,13.27a4.27,4.27,0,0,1,1.92,3.32Z"/></g><path class="cls-40" d="M253.32,103.87l-58.84-34a3.55,3.55,0,0,0-3.26-.43h0a2.82,2.82,0,0,0-.44.26L186,72.41l3.54,10.8v39.93a10.91,10.91,0,0,0,4.92,8.51l46.1,26.61,11,10.6,4.76-2.72c1.15-.38,1.89-1.56,1.89-3.36V112.37A10.9,10.9,0,0,0,253.32,103.87Z"/><path class="cls-41" d="M253.32,103.87l-58.84-34a3.55,3.55,0,0,0-3.26-.43h0a2.82,2.82,0,0,0-.44.26L186,72.41l3.54,10.8v39.93a10.91,10.91,0,0,0,4.92,8.51l46.1,26.61,11,10.6,4.76-2.72c1.15-.38,1.89-1.56,1.89-3.36V112.37A10.9,10.9,0,0,0,253.32,103.87Z"/><path class="cls-42" d="M254.26,164.91c0,3.11-2.21,4.39-4.91,2.83l-58.83-34a10.91,10.91,0,0,1-4.92-8.5V74.86c0-3.11,2.21-4.39,4.91-2.83l58.84,34a10.87,10.87,0,0,1,4.91,8.5Z"/><path class="cls-43" d="M253.13,165.65c0,3.12-2.21,4.4-4.91,2.84l-58.83-34a10.89,10.89,0,0,1-4.91-8.5V75.61c0-3.12,2.21-4.39,4.91-2.83l58.83,34a10.9,10.9,0,0,1,4.91,8.51Z"/><path class="cls-4" d="M216,139.44l-3.77-2.18a3.6,3.6,0,0,1-1.74-2.71c0-.94.78-1.25,1.74-.69L216,136a3.61,3.61,0,0,1,1.75,2.71C217.74,139.68,217,140,216,139.44Zm11.22,4.77a3.56,3.56,0,0,0-1.74-2.7l-3.78-2.18c-1-.56-1.74-.25-1.74.69a3.58,3.58,0,0,0,1.75,2.71l3.77,2.18C226.44,145.46,227.22,145.15,227.22,144.21Zm9.6,5.54a3.58,3.58,0,0,0-1.74-2.7l-3.77-2.18c-1-.56-1.75-.25-1.75.69a3.6,3.6,0,0,0,1.74,2.71l3.78,2.18C236,151,236.82,150.69,236.82,149.75Z"/><path class="cls-4" d="M199.7,97.3a7.78,7.78,0,0,0,3.51,6.08l8.87,5.13,4.59,7V101.81a7.81,7.81,0,0,0-3.51-6.09L203.21,90c-1.93-1.12-3.51-.21-3.51,2Zm12.35,3.61a2.45,2.45,0,0,1,1.12,1.94c0,.72-.5,1-1.12.65a2.49,2.49,0,0,1-1.12-2C210.93,100.84,211.43,100.55,212.05,100.91Zm-3.87-2.23a2.46,2.46,0,0,1,1.13,1.94c0,.71-.5,1-1.13.65a2.51,2.51,0,0,1-1.12-2C207.06,98.61,207.56,98.32,208.18,98.68Zm-3.86-2.23a2.45,2.45,0,0,1,1.12,1.94c0,.71-.5,1-1.12.65a2.49,2.49,0,0,1-1.12-2C203.2,96.38,203.7,96.09,204.32,96.45Z"/><path class="cls-4" d="M231.26,111.23l-12.72-7.35v17.19l-3-4.61-4.08-6.19-2.82-1.62V128l7.73-2.81,14.93,8.62c3.25,1.88,5.91.34,5.91-3.41v-8.91A13.11,13.11,0,0,0,231.26,111.23Zm-8.37,9.33a4.16,4.16,0,0,1-1.89-3.27c0-1.2.84-1.69,1.89-1.09a4.19,4.19,0,0,1,1.89,3.27C224.78,120.67,223.93,121.16,222.89,120.56Zm6.5,3.75A4.14,4.14,0,0,1,227.5,121c0-1.2.85-1.69,1.89-1.09a4.2,4.2,0,0,1,1.89,3.27C231.28,124.43,230.43,124.92,229.39,124.31Z"/><path class="cls-44" d="M263.24,263.77l-58.83-34a3.59,3.59,0,0,0-3.26-.44h0a3.07,3.07,0,0,0-.43.26L196,232.32l3.55,10.8v39.93a10.87,10.87,0,0,0,4.91,8.5l46.1,26.62,11,10.59,4.76-2.71c1.14-.38,1.88-1.56,1.88-3.37v-50.4A10.9,10.9,0,0,0,263.24,263.77Z"/><path class="cls-45" d="M264.18,324.81c0,3.12-2.21,4.39-4.91,2.84l-58.83-34a10.9,10.9,0,0,1-4.91-8.51v-50.4c0-3.12,2.21-4.4,4.91-2.84l58.83,34a10.9,10.9,0,0,1,4.91,8.51Z"/><path class="cls-46" d="M263.06,325.56c0,3.12-2.21,4.39-4.91,2.83l-58.83-34a10.89,10.89,0,0,1-4.92-8.51v-50.4c0-3.12,2.21-4.4,4.92-2.84l58.83,34a10.9,10.9,0,0,1,4.91,8.51Z"/><path class="cls-47" d="M234.7,301.58l-3.77-2.18a3.6,3.6,0,0,1-1.74-2.71c0-.94.78-1.25,1.74-.7l3.78,2.18a3.6,3.6,0,0,1,1.74,2.71C236.45,301.82,235.67,302.13,234.7,301.58Z"/><path class="cls-48" d="M244.18,307l-3.77-2.17a3.58,3.58,0,0,1-1.75-2.71c0-.94.79-1.25,1.75-.7l3.77,2.18a3.6,3.6,0,0,1,1.74,2.71C245.92,307.29,245.14,307.6,244.18,307Z"/><path class="cls-49" d="M253.78,312.59,250,310.41a3.58,3.58,0,0,1-1.75-2.71c0-.94.78-1.25,1.75-.69l3.77,2.17a3.6,3.6,0,0,1,1.74,2.71C255.52,312.83,254.74,313.14,253.78,312.59Z"/><path class="cls-50" d="M233.85,266.28l-3.19-1.85a3.26,3.26,0,0,1-1.47-2.55c0-.94.66-1.32,1.47-.85l3.19,1.84a3.22,3.22,0,0,1,1.47,2.55C235.33,266.37,234.66,266.75,233.85,266.28Z"/><path class="cls-51" d="M220.65,272.07a2.88,2.88,0,0,1-1-1.06c-.55-1-.55-2,0-2.32l2-1.15a.36.36,0,0,0,.13-.31,1,1,0,0,0-.13-.46l-2-3.44c-.55-1-.55-2,0-2.32s1.46.2,2,1.16l2,3.44c1.29,2.24,1.29,4.67,0,5.41l-2,1.15A1,1,0,0,1,220.65,272.07Zm-13.31-8.16c.55-.33.55-1.36,0-2.33l-2-3.43a1,1,0,0,1-.14-.47.38.38,0,0,1,.13-.31l2-1.14c.55-.32.55-1.36,0-2.32s-1.46-1.48-2-1.16l-2,1.15c-1.29.74-1.29,3.17,0,5.41l2,3.43a3,3,0,0,0,1,1.07A1,1,0,0,0,207.34,263.91Zm4.14,9.33,6.71-19a2.84,2.84,0,0,0-.89-2.59c-.74-.72-1.55-.73-1.8,0l-6.71,19a2.84,2.84,0,0,0,.89,2.59,2.34,2.34,0,0,0,.46.35C210.73,273.92,211.28,273.81,211.48,273.24Z"/><path class="cls-52" d="M236.45,286.49l-1.58-.91v-4a3.21,3.21,0,0,0-.27-1.4,1.88,1.88,0,0,0-.77-.85,1.2,1.2,0,0,0-.45-.15,1.16,1.16,0,0,0-.45.05,1.18,1.18,0,0,0-.39.25,1,1,0,0,0-.25.44v4.17l-1.58-.91v-9.94l1.58.91v4.13a1.16,1.16,0,0,1,.92-.54,2.31,2.31,0,0,1,1.29.38,3.43,3.43,0,0,1,1,.8,3.76,3.76,0,0,1,.59,1,4.34,4.34,0,0,1,.29,1.07,6.74,6.74,0,0,1,.09,1.08Z"/><path class="cls-53" d="M241.47,289a4.67,4.67,0,0,1-.78-.12,3.38,3.38,0,0,1-1-.4,2.91,2.91,0,0,1-.61-.45,2.61,2.61,0,0,1-.51-.59,3.22,3.22,0,0,1-.35-.75,2.8,2.8,0,0,1-.13-.88v-4.1l-.81-.47v-1.4l.81.47V278l1.58.91v2.32l1.3.75v1.4l-1.3-.75v3.48a1.15,1.15,0,0,0,.17.64,1.24,1.24,0,0,0,.42.4,1.42,1.42,0,0,0,.48.18l.38.06Z"/><path class="cls-54" d="M251.89,295.41l-1.58-.92v-4a3.51,3.51,0,0,0-.25-1.4,1.72,1.72,0,0,0-.71-.79.92.92,0,0,0-.88-.1,1.09,1.09,0,0,0-.59.74v4.15l-1.58-.91v-4a3.31,3.31,0,0,0-.25-1.4,1.79,1.79,0,0,0-.7-.8,1,1,0,0,0-.88-.1,1.08,1.08,0,0,0-.6.74v4.16l-1.58-.91v-7.13l1.43.82v1.32a1.16,1.16,0,0,1,.94-.53,2.59,2.59,0,0,1,1.36.41,3.44,3.44,0,0,1,1.2,1.13,3.93,3.93,0,0,1,.54,1.39,1.32,1.32,0,0,1,1-.57,2.3,2.3,0,0,1,1.32.37,3.42,3.42,0,0,1,.93.79,3.6,3.6,0,0,1,.56,1,4.37,4.37,0,0,1,.28,1.06,7.82,7.82,0,0,1,.08,1.07Z"/><path class="cls-55" d="M253.25,286.26l1.58.91v7.65a1.52,1.52,0,0,0,.17.71,1.17,1.17,0,0,0,.47.49,1.43,1.43,0,0,0,.31.12l.33.06.21,1.51a2.74,2.74,0,0,1-.75-.16,4.85,4.85,0,0,1-.76-.35,3,3,0,0,1-1.15-1.12,3,3,0,0,1-.41-1.53Z"/><g class="cls-56"><path class="cls-8" d="M339.62,116.52c0,2.66-1.87,3.74-4.17,2.41L285.39,90a9.34,9.34,0,0,1-4.18-7.24V39.92c0-2.66,1.88-3.74,4.18-2.42l50.06,28.9a9.28,9.28,0,0,1,4.17,7.24Z"/><path class="cls-9" d="M339.06,115.79c0,2.6-1.84,3.66-4.09,2.36l-49.1-28.34a9.14,9.14,0,0,1-4.1-7.1V40.65c0-2.6,1.85-3.67,4.1-2.37L335,66.63a9.08,9.08,0,0,1,4.09,7.1Z"/><path class="cls-10" d="M338.5,115.05c0,2.55-1.8,3.6-4,2.32L286.35,89.58a9,9,0,0,1-4-7V41.39c0-2.55,1.81-3.6,4-2.32l48.14,27.78a8.94,8.94,0,0,1,4,7Z"/><path class="cls-11" d="M337.94,114.32c0,2.5-1.77,3.52-3.94,2.27L286.83,89.36a8.74,8.74,0,0,1-3.93-6.82V42.12c0-2.5,1.77-3.52,3.93-2.27L334,67.08a8.73,8.73,0,0,1,3.94,6.82Z"/><path class="cls-12" d="M337.38,113.58c0,2.45-1.73,3.45-3.86,2.23L287.31,89.13a8.56,8.56,0,0,1-3.85-6.68V42.86c0-2.45,1.73-3.45,3.85-2.23l46.21,26.68A8.55,8.55,0,0,1,337.38,74Z"/><path class="cls-13" d="M336.82,112.84c0,2.4-1.7,3.38-3.78,2.19L287.79,88.9A8.39,8.39,0,0,1,284,82.36V43.59c0-2.4,1.7-3.38,3.77-2.18L333,67.54a8.37,8.37,0,0,1,3.78,6.54Z"/><path class="cls-14" d="M336.26,112.11c0,2.35-1.66,3.31-3.7,2.13L288.28,88.68a8.21,8.21,0,0,1-3.7-6.41V44.33c0-2.35,1.66-3.31,3.7-2.14l44.28,25.57a8.23,8.23,0,0,1,3.7,6.41Z"/><path class="cls-15" d="M335.7,111.37c0,2.3-1.63,3.24-3.62,2.09l-43.32-25a8,8,0,0,1-3.62-6.27V45.06c0-2.29,1.63-3.23,3.62-2.08l43.32,25a8,8,0,0,1,3.62,6.26Z"/><path class="cls-16" d="M335.14,110.64c0,2.24-1.59,3.16-3.54,2L289.24,88.22a7.83,7.83,0,0,1-3.54-6.12V45.8c0-2.25,1.59-3.17,3.54-2L331.6,68.22a7.86,7.86,0,0,1,3.54,6.12Z"/><path class="cls-17" d="M334.58,109.9c0,2.2-1.56,3.1-3.46,2L289.72,88a7.66,7.66,0,0,1-3.46-6V46.53c0-2.19,1.56-3.09,3.46-2l41.4,23.9a7.69,7.69,0,0,1,3.46,6Z"/><path class="cls-18" d="M334,109.17c0,2.14-1.52,3-3.38,2L290.2,87.77a7.49,7.49,0,0,1-3.38-5.85V47.27c0-2.14,1.52-3,3.38-2l40.44,23.35A7.48,7.48,0,0,1,334,74.52Z"/><path class="cls-19" d="M333.46,108.43c0,2.09-1.49,2.95-3.3,1.9L290.68,87.54a7.32,7.32,0,0,1-3.3-5.71V48c0-2.1,1.49-2.95,3.3-1.91l39.48,22.8a7.31,7.31,0,0,1,3.3,5.71Z"/><path class="cls-20" d="M332.89,107.7c0,2-1.44,2.87-3.21,1.85L291.16,87.31a7.15,7.15,0,0,1-3.22-5.57v-33c0-2,1.45-2.88,3.22-1.86l38.52,22.24a7.14,7.14,0,0,1,3.21,5.57Z"/><path class="cls-21" d="M332.33,107c0,2-1.41,2.81-3.13,1.81L291.64,87.09a7,7,0,0,1-3.14-5.43V49.48c0-2,1.41-2.81,3.14-1.81L329.2,69.35a7,7,0,0,1,3.13,5.43Z"/><path class="cls-22" d="M331.77,106.23c0,1.94-1.37,2.73-3,1.76l-36.6-21.13a6.81,6.81,0,0,1-3.06-5.29V50.21c0-1.94,1.38-2.73,3.06-1.76l36.6,21.13a6.77,6.77,0,0,1,3,5.29Z"/><path class="cls-23" d="M331.21,105.49c0,1.89-1.34,2.66-3,1.72L292.6,86.63a6.6,6.6,0,0,1-3-5.15V51c0-1.89,1.33-2.66,3-1.72l35.64,20.58a6.6,6.6,0,0,1,3,5.15Z"/><path class="cls-24" d="M330.65,104.75c0,1.84-1.3,2.59-2.89,1.68l-34.68-20a6.43,6.43,0,0,1-2.89-5V51.68c0-1.83,1.3-2.59,2.89-1.67l34.68,20a6.43,6.43,0,0,1,2.89,5Z"/><path class="cls-25" d="M330.09,104c0,1.79-1.27,2.52-2.81,1.62L293.56,86.18a6.26,6.26,0,0,1-2.81-4.88V52.42c0-1.79,1.26-2.52,2.81-1.63l33.72,19.47a6.26,6.26,0,0,1,2.81,4.87Z"/><path class="cls-26" d="M329.53,103.28c0,1.74-1.23,2.45-2.73,1.58L294,86a6.07,6.07,0,0,1-2.73-4.73V53.15c0-1.73,1.23-2.44,2.73-1.57L326.8,70.49a6.06,6.06,0,0,1,2.73,4.73Z"/><path class="cls-27" d="M329,102.55c0,1.68-1.2,2.37-2.65,1.53l-31.8-18.35a5.91,5.91,0,0,1-2.65-4.6V53.89c0-1.68,1.19-2.38,2.65-1.53l31.8,18.35a5.92,5.92,0,0,1,2.65,4.6Z"/><path class="cls-28" d="M328.41,101.81c0,1.64-1.16,2.3-2.57,1.49L295,85.5A5.72,5.72,0,0,1,292.43,81V54.63c0-1.64,1.16-2.31,2.57-1.49l30.84,17.8a5.72,5.72,0,0,1,2.57,4.46Z"/><path class="cls-29" d="M327.85,101.08c0,1.58-1.12,2.23-2.5,1.44L295.48,85.27A5.52,5.52,0,0,1,293,81V55.36c0-1.58,1.12-2.23,2.49-1.44l29.87,17.25a5.53,5.53,0,0,1,2.5,4.32Z"/><path class="cls-30" d="M327.29,100.34c0,1.53-1.09,2.16-2.42,1.39L296,85a5.35,5.35,0,0,1-2.41-4.18V56.1c0-1.54,1.09-2.16,2.41-1.4l28.91,16.69a5.36,5.36,0,0,1,2.42,4.18Z"/><path class="cls-31" d="M326.73,99.61c0,1.48-1.05,2.08-2.34,1.34L296.45,84.82a5.16,5.16,0,0,1-2.34-4v-24c0-1.48,1.05-2.09,2.34-1.35l27.94,16.14a5.19,5.19,0,0,1,2.34,4Z"/><path class="cls-32" d="M326.17,98.87c0,1.43-1,2-2.26,1.3l-27-15.58a5,5,0,0,1-2.26-3.9V57.57c0-1.43,1-2,2.26-1.3l27,15.58a5,5,0,0,1,2.26,3.9Z"/><path class="cls-33" d="M325.6,98.13c0,1.38-1,2-2.17,1.26l-26-15a4.84,4.84,0,0,1-2.18-3.76V58.3c0-1.38,1-1.94,2.18-1.25l26,15a4.82,4.82,0,0,1,2.17,3.77Z"/><path class="cls-34" d="M325,97.4c0,1.33-.94,1.87-2.09,1.21L297.89,84.14a4.7,4.7,0,0,1-2.1-3.63V59c0-1.33.95-1.87,2.1-1.21L323,72.3A4.66,4.66,0,0,1,325,75.93Z"/><path class="cls-35" d="M324.48,96.66c0,1.28-.9,1.8-2,1.17l-24.1-13.92a4.46,4.46,0,0,1-2-3.49V59.77c0-1.27.9-1.8,2-1.16l24.1,13.92a4.46,4.46,0,0,1,2,3.48Z"/><path class="cls-36" d="M323.92,95.93c0,1.23-.87,1.73-1.93,1.11L298.85,83.68a4.29,4.29,0,0,1-1.93-3.34V60.51c0-1.23.87-1.73,1.93-1.12L322,72.76a4.27,4.27,0,0,1,1.93,3.34Z"/><path class="cls-37" d="M323.36,95.19c0,1.18-.83,1.66-1.85,1.07l-22.18-12.8a4.1,4.1,0,0,1-1.85-3.21v-19c0-1.18.83-1.66,1.85-1.07L321.51,73a4.1,4.1,0,0,1,1.85,3.21Z"/><path class="cls-38" d="M322.8,94.46c0,1.12-.8,1.58-1.77,1L299.81,83.23A3.93,3.93,0,0,1,298,80.16V62c0-1.12.79-1.59,1.77-1L321,73.21a3.93,3.93,0,0,1,1.77,3.07Z"/><path class="cls-39" d="M322.24,93.72c0,1.08-.76,1.51-1.69,1L300.29,83a3.75,3.75,0,0,1-1.69-2.93V62.72c0-1.08.76-1.52,1.69-1l20.26,11.7a3.73,3.73,0,0,1,1.69,2.93Z"/></g><path class="cls-57" d="M299.9,39.42,276.82,26.09a3.72,3.72,0,0,0-2.51-.57,2.16,2.16,0,0,0-.56.18l-4.93,1.67,3.43,6.16V55.38a10.11,10.11,0,0,0,4.57,7.91l17.71,10.23,3,5.3,4.9-1.63a2,2,0,0,0,.53-.18l.15-.05h0a3.17,3.17,0,0,0,1.41-3V47.33A10.14,10.14,0,0,0,299.9,39.42Z"/><path class="cls-58" d="M299.9,39.42,276.82,26.09a3.72,3.72,0,0,0-2.51-.57,2.16,2.16,0,0,0-.56.18l-4.93,1.67,3.43,6.16V55.38a10.11,10.11,0,0,0,4.57,7.91l17.71,10.23,3,5.3,4.9-1.63a2,2,0,0,0,.53-.18l.15-.05h0a3.17,3.17,0,0,0,1.41-3V47.33A10.14,10.14,0,0,0,299.9,39.42Z"/><path class="cls-59" d="M268.13,29.94c0-2.91,2.05-4.09,4.56-2.64l23.08,13.32a10.13,10.13,0,0,1,4.57,7.92V75.19c0,2.9-2,4.09-4.57,2.63L272.69,64.5a10.13,10.13,0,0,1-4.56-7.92Z"/><path class="cls-46" d="M267.38,30.31c0-2.9,2.05-4.09,4.57-2.64L295,41a10.11,10.11,0,0,1,4.57,7.91V75.56c0,2.9-2,4.09-4.57,2.64L272,64.87A10.11,10.11,0,0,1,267.38,57Z"/><path class="cls-60" d="M289.21,63.6a.66.66,0,0,0,1.12,0l1.6-2.28a1.31,1.31,0,0,0,0-1.49l-1.51-1.87a2.51,2.51,0,0,1-.56-1V56.7c0-.09.4-.21.91-.26l.81-.07a.66.66,0,0,0,.59-.95l-2-5.15a1.31,1.31,0,0,0-1.26-.79l-.74.07a1.74,1.74,0,0,1-1.12-.17,3.65,3.65,0,0,1-.39-1.42V46.37a1.76,1.76,0,0,0-.81-1.39l-3.73-2.16c-.45-.25-.81,0-.81.47v1.56c0,.51-.09.93-.21.94a2.17,2.17,0,0,1-1-.68l-1.41-1.75a.66.66,0,0,0-1.11,0L276,45.68a1.33,1.33,0,0,0,.05,1.49L277.45,49a2.73,2.73,0,0,1,.57.9v.25c0,.18-.39.36-.9.4l-.78.07a.67.67,0,0,0-.59.95l2,5.16a1.33,1.33,0,0,0,1.27.78l.84-.07a1.88,1.88,0,0,1,1.09.11,3.53,3.53,0,0,1,.32,1.33V60.6a1.76,1.76,0,0,0,.81,1.39l3.73,2.16c.45.26.81,0,.81-.47V61.92c0-.51.07-.93.15-.94a2.26,2.26,0,0,1,.89.69ZM286.76,55c0,1.81-1.28,2.54-2.84,1.64a6.3,6.3,0,0,1-2.83-4.91c0-1.81,1.27-2.54,2.83-1.64A6.29,6.29,0,0,1,286.76,55Z"/><path class="cls-61" d="M378.12,110,355,96.64a3.75,3.75,0,0,0-2.5-.58c-.2,0-5.5,1.86-5.5,1.86l3.43,6.16v21.85a10.14,10.14,0,0,0,4.57,7.91l17.71,10.23,2.95,5.3,5.58-3a3.14,3.14,0,0,0,1.41-3V117.88A10.14,10.14,0,0,0,378.12,110Z"/><path class="cls-62" d="M378.12,110,355,96.64a3.75,3.75,0,0,0-2.5-.58c-.2,0-5.5,1.86-5.5,1.86l3.43,6.16v21.85a10.14,10.14,0,0,0,4.57,7.91l17.71,10.23,2.95,5.3,5.58-3a3.14,3.14,0,0,0,1.41-3V117.88A10.14,10.14,0,0,0,378.12,110Z"/><path class="cls-63" d="M345.61,100.78c0-2.91,2.05-4.09,4.57-2.64l23.08,13.32a10.16,10.16,0,0,1,4.57,7.92V146c0,2.9-2.06,4.08-4.57,2.63l-23.08-13.32a10.12,10.12,0,0,1-4.57-7.92Z"/><path class="cls-64" d="M344.86,101.15c0-2.9,2.05-4.09,4.57-2.64l23.08,13.33a10.14,10.14,0,0,1,4.57,7.91V146.4c0,2.9-2.06,4.09-4.57,2.64l-23.08-13.33a10.11,10.11,0,0,1-4.57-7.91Z"/><path class="cls-5" d="M367.94,133.21l-2.57-4.46a6.62,6.62,0,0,0,.74-3.25,16.08,16.08,0,0,0-7.27-12.59c-4-2.32-7.27-.44-7.27,4.19a16.08,16.08,0,0,0,7.27,12.59,5.88,5.88,0,0,0,4,.92l2.39,4.14a3.89,3.89,0,0,0,1.34,1.41,1.33,1.33,0,0,0,1.33.13C368.68,135.86,368.68,134.48,367.94,133.21Zm-12.6-13.93c0-2.23,1.57-3.13,3.5-2a7.75,7.75,0,0,1,3.5,6.06c0,2.23-1.57,3.13-3.5,2A7.75,7.75,0,0,1,355.34,119.28Z"/><g class="cls-65"><polygon class="cls-8" points="106.01 324.33 175.82 282.52 129.28 254.64 59.46 296.45 106.01 324.33"/><polygon class="cls-66" points="106.01 324.33 174.54 283.29 128 255.41 59.46 296.45 106.01 324.33"/><polygon class="cls-67" points="106.01 324.33 173.26 284.06 126.72 256.18 59.46 296.45 106.01 324.33"/><polygon class="cls-68" points="106.01 324.33 171.98 284.82 125.44 256.95 59.46 296.45 106.01 324.33"/><polygon class="cls-69" points="106.01 324.33 170.7 285.59 124.15 257.72 59.46 296.45 106.01 324.33"/><polygon class="cls-70" points="106.01 324.33 169.41 286.36 122.87 258.49 59.46 296.45 106.01 324.33"/><polygon class="cls-71" points="106.01 324.33 168.13 287.13 121.59 259.26 59.46 296.45 106.01 324.33"/><polygon class="cls-72" points="106.01 324.33 166.85 287.9 120.31 260.03 59.46 296.45 106.01 324.33"/><polygon class="cls-73" points="106.01 324.33 165.57 288.67 119.03 260.8 59.46 296.45 106.01 324.33"/><polygon class="cls-74" points="106.01 324.33 164.29 289.44 117.75 261.56 59.46 296.45 106.01 324.33"/><polygon class="cls-75" points="106.01 324.33 163.01 290.21 116.47 262.33 59.46 296.45 106.01 324.33"/><polygon class="cls-76" points="106.01 324.33 161.73 290.98 115.19 263.1 59.46 296.45 106.01 324.33"/><polygon class="cls-77" points="106.01 324.33 160.45 291.74 113.91 263.87 59.46 296.45 106.01 324.33"/><polygon class="cls-78" points="106.01 324.33 159.17 292.51 112.63 264.64 59.46 296.45 106.01 324.33"/><polygon class="cls-79" points="106.01 324.33 157.89 293.28 111.35 265.41 59.46 296.45 106.01 324.33"/><polygon class="cls-80" points="106.01 324.33 156.61 294.05 110.07 266.18 59.46 296.45 106.01 324.33"/><polygon class="cls-81" points="106.01 324.33 155.33 294.82 108.79 266.95 59.46 296.45 106.01 324.33"/><polygon class="cls-82" points="106.01 324.33 154.05 295.59 107.51 267.72 59.46 296.45 106.01 324.33"/><polygon class="cls-83" points="106.01 324.33 152.77 296.36 106.23 268.49 59.46 296.45 106.01 324.33"/><polygon class="cls-84" points="106.01 324.33 151.49 297.13 104.95 269.25 59.46 296.45 106.01 324.33"/><polygon class="cls-85" points="106.01 324.33 150.21 297.9 103.67 270.02 59.46 296.45 106.01 324.33"/><polygon class="cls-86" points="106.01 324.33 148.93 298.67 102.39 270.79 59.46 296.45 106.01 324.33"/><polygon class="cls-87" points="106.01 324.33 147.65 299.43 101.1 271.56 59.46 296.45 106.01 324.33"/><polygon class="cls-88" points="106.01 324.33 146.37 300.2 99.82 272.33 59.46 296.45 106.01 324.33"/><polygon class="cls-89" points="106.01 324.33 145.08 300.97 98.54 273.1 59.46 296.45 106.01 324.33"/><polygon class="cls-90" points="106.01 324.33 143.8 301.74 97.26 273.87 59.46 296.45 106.01 324.33"/><polygon class="cls-91" points="106.01 324.33 142.52 302.51 95.98 274.64 59.46 296.45 106.01 324.33"/><polygon class="cls-92" points="106.01 324.33 141.24 303.28 94.7 275.41 59.46 296.45 106.01 324.33"/><polygon class="cls-93" points="106.01 324.33 139.96 304.05 93.42 276.18 59.46 296.45 106.01 324.33"/><polygon class="cls-94" points="106.01 324.33 138.68 304.82 92.14 276.94 59.46 296.45 106.01 324.33"/><polygon class="cls-95" points="106.01 324.33 137.4 305.59 90.86 277.71 59.46 296.45 106.01 324.33"/><polygon class="cls-96" points="106.01 324.33 136.12 306.36 89.58 278.48 59.46 296.45 106.01 324.33"/><polygon class="cls-97" points="106.01 324.33 134.84 307.12 88.3 279.25 59.46 296.45 106.01 324.33"/><polygon class="cls-98" points="106.01 324.33 133.56 307.89 87.02 280.02 59.46 296.45 106.01 324.33"/><polygon class="cls-99" points="106.01 324.33 132.28 308.66 85.74 280.79 59.46 296.45 106.01 324.33"/><polygon class="cls-100" points="106.01 324.33 131 309.43 84.46 281.56 59.46 296.45 106.01 324.33"/><polygon class="cls-101" points="106.01 324.33 129.72 310.2 83.18 282.33 59.46 296.45 106.01 324.33"/><polygon class="cls-102" points="106.01 324.33 128.44 310.97 81.9 283.1 59.46 296.45 106.01 324.33"/><polygon class="cls-103" points="106.01 324.33 127.16 311.74 80.61 283.87 59.46 296.45 106.01 324.33"/><polygon class="cls-104" points="106.01 324.33 125.88 312.51 79.33 284.63 59.46 296.45 106.01 324.33"/><polygon class="cls-105" points="106.01 324.33 124.59 313.27 78.05 285.4 59.46 296.45 106.01 324.33"/><polygon class="cls-106" points="106.01 324.33 123.31 314.04 76.77 286.17 59.46 296.45 106.01 324.33"/><polygon class="cls-107" points="106.01 324.33 122.03 314.81 75.49 286.94 59.46 296.45 106.01 324.33"/><polygon class="cls-108" points="106.01 324.33 120.75 315.58 74.21 287.71 59.46 296.45 106.01 324.33"/><polygon class="cls-109" points="106.01 324.33 119.47 316.35 72.93 288.48 59.46 296.45 106.01 324.33"/><polygon class="cls-110" points="106.01 324.33 118.19 317.12 71.65 289.25 59.46 296.45 106.01 324.33"/><polygon class="cls-111" points="106.01 324.33 116.91 317.89 70.37 290.02 59.46 296.45 106.01 324.33"/><polygon class="cls-112" points="106.01 324.33 115.63 318.66 69.09 290.79 59.46 296.45 106.01 324.33"/><polygon class="cls-113" points="106.01 324.33 114.35 319.43 67.81 291.55 59.46 296.45 106.01 324.33"/><polygon class="cls-114" points="106.01 324.33 113.07 320.2 66.53 292.32 59.46 296.45 106.01 324.33"/><polygon class="cls-115" points="106.01 324.33 111.79 320.96 65.25 293.09 59.46 296.45 106.01 324.33"/><polygon class="cls-116" points="106.01 324.33 110.51 321.73 63.97 293.86 59.46 296.45 106.01 324.33"/></g><polygon class="cls-117" points="61.84 349.67 109.41 322.2 109.41 267.28 61.84 294.74 61.84 349.67"/><polygon class="cls-118" points="61.84 294.74 14.27 267.28 61.84 239.81 109.41 267.28 61.84 294.74"/><polygon class="cls-6" points="61.84 349.67 14.27 322.2 14.27 267.28 61.84 294.74 61.84 349.67"/><path class="cls-119" d="M40.75,258.68c11.6-8.91,30.58-8.91,42.17,0s11.6,23.51,0,32.42-30.57,8.92-42.17,0S29.16,267.6,40.75,258.68Z"/><path class="cls-120" d="M89.35,247.28c0-.68-1-1.23-2.13-1.23H82.67c-.75,0-2,.79-2.18.55-.32-.39-.2-.85.33-1.16L84,243.6c.83-.48-4.45-.26-5.28-.74l0-4a3.33,3.33,0,0,0-3,0l-3.23,1.86a2.77,2.77,0,0,1-1.94.21l-1.39-.32c-.68-.15-1.12-.53-1.12-.94V237c0-.68-.95-1.23-2.12-1.23H58.57c-1.17,0-2.13.55-2.13,1.23v2.61c0,.43-.48.81-1.19,1l-1.31.31a2.82,2.82,0,0,1-2-.18l-3.23-1.85a3.33,3.33,0,0,0-3,0l-.38,4.36c-.83.48-5.66-.09-4.83.39l3.25,1.86c.51.29.66.73.38,1.11s-1.47-.52-2.2-.52H37.31c-1.17,0-2.12.55-2.12,1.23l0,6.22c0,.68,1,1.22,2.13,1.22H40l-.07,5.14a.57.57,0,0,0,0,.26h0a1.14,1.14,0,0,0,.6.75l5.25,3a3.15,3.15,0,0,0,1.87.32l0,0v0a2.94,2.94,0,0,0,1.11-.32L52,262.05a2.82,2.82,0,0,1,1.94-.21l1.39.32c.68.15,1.12.53,1.12.94v2.64c0,.68,1,1.23,2.14,1.23H66c1.18,0,2.13-.55,2.13-1.23v-2.61c0-.44.48-.81,1.19-1,.42-.09.84-.19,1.25-.3a2.82,2.82,0,0,1,2,.19l3.22,1.85a3.13,3.13,0,0,0,1.1.31v0l.06,0a3.17,3.17,0,0,0,1.85-.32l5.23-3a1.12,1.12,0,0,0,.59-.71h0V260a.13.13,0,0,0,0-.06l-.06-5.25h2.62c1.17,0,2.12-.55,2.12-1.23ZM72.6,252.47c-1.24,3.77-8,5.89-14.11,4.54C53.86,256,51,253.1,52,250.3c1.23-3.77,8-5.9,14.11-4.55C70.69,246.78,73.51,249.66,72.6,252.47Z"/><path class="cls-120" d="M84.68,240.2l0-3.35H79.86l-1.07-.61a3.33,3.33,0,0,0-3,0l-1.06.61H68.1v-2.44c0-.67-.95-1.22-2.12-1.22H58.57c-1.17,0-2.13.55-2.13,1.22v2.44H49.72l-1-.58a3.33,3.33,0,0,0-3,0l-1,.58H39.85v3.27a1,1,0,0,0,.62.9l3.25,1.86,37.1,0L84,241a1.09,1.09,0,0,0,.61-.78Z"/><path class="cls-121" d="M81.42,248.85h5.81c1.17,0,2.12-.55,2.12-1.22v-4.26c0-.68-1-1.23-2.13-1.23H82.67a2,2,0,0,1-1.66-.68c-.16-.24-.33-.48-.52-.72-.32-.4-.2-.86.33-1.16L84,237.72A.92.92,0,0,0,84,236l-5.24-3a3.33,3.33,0,0,0-3,0l-3.23,1.87a2.82,2.82,0,0,1-1.94.21l-1.39-.32c-.68-.16-1.12-.53-1.12-.95v-2.64c0-.67-.95-1.22-2.12-1.22H58.57c-1.17,0-2.13.55-2.13,1.22v2.62c0,.43-.48.8-1.19,1l-1.31.32a2.82,2.82,0,0,1-2-.19L48.69,233a3.33,3.33,0,0,0-3,0l-5.22,3c-.83.47-.82,1.25,0,1.73l3.25,1.85c.51.3.66.74.38,1.12s-.4.55-.56.8a2,2,0,0,1-1.64.64H37.31c-1.17,0-2.12.55-2.12,1.23l0,4.26c0,.67,1,1.22,2.13,1.22h4.55a2,2,0,0,1,1.66.69c.16.24.34.48.53.72.31.39.2.85-.33,1.16l-3.21,1.85a.91.91,0,0,0,0,1.73l5.25,3a3.33,3.33,0,0,0,3,0L52,256.17A2.77,2.77,0,0,1,54,256l1.39.32c.68.15,1.12.52,1.12.94v2.64c0,.68,1,1.22,2.14,1.22H66c1.18,0,2.13-.56,2.13-1.23v-2.62c0-.43.48-.8,1.19-1l1.25-.3a2.77,2.77,0,0,1,2,.19L75.82,258a3.33,3.33,0,0,0,3,0l5.23-3c.83-.47.83-1.25,0-1.73l-3.24-1.86c-.51-.29-.65-.73-.37-1.11C80.91,249.65,81.4,248.89,81.42,248.85ZM52,244.41c1.23-3.76,8-5.89,14.11-4.54,4.63,1,7.45,3.91,6.54,6.72-1.24,3.76-8,5.89-14.11,4.54C53.86,250.1,51,247.22,52,244.41Z"/><g class="cls-65"><polygon class="cls-8" points="388.64 427.79 454.99 388.05 410.75 361.56 344.4 401.3 388.64 427.79"/><polygon class="cls-66" points="388.64 427.79 453.77 388.78 409.54 362.29 344.4 401.3 388.64 427.79"/><polygon class="cls-67" points="388.64 427.79 452.56 389.51 408.32 363.02 344.4 401.3 388.64 427.79"/><polygon class="cls-68" points="388.64 427.79 451.34 390.25 407.1 363.75 344.4 401.3 388.64 427.79"/><polygon class="cls-69" points="388.64 427.79 450.12 390.98 405.88 364.49 344.4 401.3 388.64 427.79"/><polygon class="cls-70" points="388.64 427.79 448.9 391.71 404.67 365.22 344.4 401.3 388.64 427.79"/><polygon class="cls-71" points="388.64 427.79 447.69 392.44 403.45 365.95 344.4 401.3 388.64 427.79"/><polygon class="cls-72" points="388.64 427.79 446.47 393.17 402.23 366.68 344.4 401.3 388.64 427.79"/><polygon class="cls-73" points="388.64 427.79 445.25 393.9 401.02 367.41 344.4 401.3 388.64 427.79"/><polygon class="cls-74" points="388.64 427.79 444.04 394.63 399.8 368.14 344.4 401.3 388.64 427.79"/><polygon class="cls-75" points="388.64 427.79 442.82 395.36 398.58 368.87 344.4 401.3 388.64 427.79"/><polygon class="cls-76" points="388.64 427.79 441.6 396.09 397.37 369.6 344.4 401.3 388.64 427.79"/><polygon class="cls-77" points="388.64 427.79 440.38 396.82 396.15 370.33 344.4 401.3 388.64 427.79"/><polygon class="cls-78" points="388.64 427.79 439.17 397.55 394.93 371.06 344.4 401.3 388.64 427.79"/><polygon class="cls-79" points="388.64 427.79 437.95 398.29 393.71 371.79 344.4 401.3 388.64 427.79"/><polygon class="cls-80" points="388.64 427.79 436.73 399.02 392.5 372.52 344.4 401.3 388.64 427.79"/><polygon class="cls-81" points="388.64 427.79 435.51 399.75 391.28 373.25 344.4 401.3 388.64 427.79"/><polygon class="cls-82" points="388.64 427.79 434.3 400.48 390.06 373.99 344.4 401.3 388.64 427.79"/><polygon class="cls-83" points="388.64 427.79 433.08 401.21 388.85 374.72 344.4 401.3 388.64 427.79"/><polygon class="cls-84" points="388.64 427.79 431.86 401.94 387.63 375.45 344.4 401.3 388.64 427.79"/><polygon class="cls-85" points="388.64 427.79 430.65 402.67 386.41 376.18 344.4 401.3 388.64 427.79"/><polygon class="cls-86" points="388.64 427.79 429.43 403.4 385.19 376.91 344.4 401.3 388.64 427.79"/><polygon class="cls-87" points="388.64 427.79 428.21 404.13 383.98 377.64 344.4 401.3 388.64 427.79"/><polygon class="cls-88" points="388.64 427.79 427 404.86 382.76 378.37 344.4 401.3 388.64 427.79"/><polygon class="cls-89" points="388.64 427.79 425.78 405.59 381.54 379.1 344.4 401.3 388.64 427.79"/><polygon class="cls-90" points="388.64 427.79 424.56 406.32 380.32 379.83 344.4 401.3 388.64 427.79"/><polygon class="cls-91" points="388.64 427.79 423.34 407.06 379.11 380.56 344.4 401.3 388.64 427.79"/><polygon class="cls-92" points="388.64 427.79 422.13 407.79 377.89 381.3 344.4 401.3 388.64 427.79"/><polygon class="cls-93" points="388.64 427.79 420.91 408.52 376.67 382.03 344.4 401.3 388.64 427.79"/><polygon class="cls-94" points="388.64 427.79 419.69 409.25 375.46 382.76 344.4 401.3 388.64 427.79"/><polygon class="cls-95" points="388.64 427.79 418.48 409.98 374.24 383.49 344.4 401.3 388.64 427.79"/><polygon class="cls-96" points="388.64 427.79 417.26 410.71 373.02 384.22 344.4 401.3 388.64 427.79"/><polygon class="cls-97" points="388.64 427.79 416.04 411.44 371.81 384.95 344.4 401.3 388.64 427.79"/><polygon class="cls-98" points="388.64 427.79 414.82 412.17 370.59 385.68 344.4 401.3 388.64 427.79"/><polygon class="cls-99" points="388.64 427.79 413.61 412.9 369.37 386.41 344.4 401.3 388.64 427.79"/><polygon class="cls-100" points="388.64 427.79 412.39 413.63 368.15 387.14 344.4 401.3 388.64 427.79"/><polygon class="cls-101" points="388.64 427.79 411.17 414.36 366.94 387.87 344.4 401.3 388.64 427.79"/><polygon class="cls-102" points="388.64 427.79 409.95 415.1 365.72 388.6 344.4 401.3 388.64 427.79"/><polygon class="cls-103" points="388.64 427.79 408.74 415.83 364.5 389.33 344.4 401.3 388.64 427.79"/><polygon class="cls-104" points="388.64 427.79 407.52 416.56 363.29 390.06 344.4 401.3 388.64 427.79"/><polygon class="cls-105" points="388.64 427.79 406.3 417.29 362.07 390.8 344.4 401.3 388.64 427.79"/><polygon class="cls-106" points="388.64 427.79 405.09 418.02 360.85 391.53 344.4 401.3 388.64 427.79"/><polygon class="cls-107" points="388.64 427.79 403.87 418.75 359.63 392.26 344.4 401.3 388.64 427.79"/><polygon class="cls-108" points="388.64 427.79 402.65 419.48 358.42 392.99 344.4 401.3 388.64 427.79"/><polygon class="cls-109" points="388.64 427.79 401.44 420.21 357.2 393.72 344.4 401.3 388.64 427.79"/><polygon class="cls-110" points="388.64 427.79 400.22 420.94 355.98 394.45 344.4 401.3 388.64 427.79"/><polygon class="cls-111" points="388.64 427.79 399 421.67 354.77 395.18 344.4 401.3 388.64 427.79"/><polygon class="cls-112" points="388.64 427.79 397.78 422.4 353.55 395.91 344.4 401.3 388.64 427.79"/><polygon class="cls-113" points="388.64 427.79 396.57 423.13 352.33 396.64 344.4 401.3 388.64 427.79"/><polygon class="cls-114" points="388.64 427.79 395.35 423.87 351.11 397.37 344.4 401.3 388.64 427.79"/><polygon class="cls-115" points="388.64 427.79 394.13 424.6 349.9 398.11 344.4 401.3 388.64 427.79"/><polygon class="cls-116" points="388.64 427.79 392.92 425.33 348.68 398.84 344.4 401.3 388.64 427.79"/></g><polygon class="cls-6" points="348.15 451.1 392.97 425.23 392.97 373.47 348.15 399.35 348.15 451.1"/><polygon class="cls-122" points="348.15 399.35 303.33 373.47 348.15 347.6 392.97 373.47 348.15 399.35"/><polygon class="cls-117" points="348.15 451.1 303.33 425.23 303.33 373.47 348.15 399.35 348.15 451.1"/><path class="cls-123" d="M327.07,359.53c11.59-8.92,30.57-8.92,42.16,0s11.6,23.51,0,32.42-30.57,8.92-42.16,0S315.47,368.45,327.07,359.53Z"/><path class="cls-120" d="M375.66,348.12c0-.67-1-1.22-2.13-1.22H369c-.76,0-2,.8-2.19.56-.31-.4-.2-.86.33-1.16l3.21-1.85c.83-.48-4.45-.26-5.28-.74l0-4a3.3,3.3,0,0,0-3,0l-3.24,1.87a2.82,2.82,0,0,1-1.94.21l-1.39-.32c-.68-.16-1.11-.53-1.11-.95v-2.64c0-.67-1-1.22-2.13-1.22h-7.41c-1.17,0-2.12.55-2.12,1.22v2.62c0,.43-.49.8-1.19,1-.45.09-.89.2-1.32.31a2.82,2.82,0,0,1-2-.19L335,339.73a3.33,3.33,0,0,0-3,0l-.39,4.36c-.83.48-5.66-.08-4.83.4l3.25,1.86c.51.29.66.73.38,1.11s-1.47-.52-2.2-.52h-4.59c-1.17,0-2.12.55-2.12,1.23l0,6.22c0,.67,1,1.22,2.13,1.22h2.67l-.07,5.13a.82.82,0,0,0,0,.27h0a1.13,1.13,0,0,0,.61.75l5.24,3a3.31,3.31,0,0,0,1.87.32l0,0v0a2.76,2.76,0,0,0,1.11-.31l3.23-1.87a2.77,2.77,0,0,1,1.94-.21l1.39.32c.68.15,1.12.52,1.12.94v2.64c0,.68.95,1.22,2.13,1.22h7.4c1.18,0,2.13-.56,2.13-1.23V364c0-.43.48-.8,1.19-.95l1.25-.31a2.82,2.82,0,0,1,2,.2l3.22,1.84a2.94,2.94,0,0,0,1.1.32v0l.06,0a3.22,3.22,0,0,0,1.85-.32l5.23-3a1.13,1.13,0,0,0,.6-.7l0,0v-.17l-.07-5.26h2.62c1.17,0,2.13-.55,2.13-1.22Zm-16.75,5.2c-1.23,3.76-8,5.89-14.11,4.54-4.63-1-7.45-3.91-6.54-6.72,1.24-3.76,8-5.89,14.11-4.54C357,347.63,359.82,350.51,358.91,353.32Z"/><path class="cls-120" d="M371,341l0-3.34h-4.8l-1.07-.61a3.3,3.3,0,0,0-3,0l-1.07.61h-6.61v-2.44c0-.68-1-1.23-2.13-1.23h-7.41c-1.17,0-2.12.55-2.12,1.23v2.44H336l-1-.59a3.36,3.36,0,0,0-3,0l-1,.58h-4.83V341a1.05,1.05,0,0,0,.62.9l3.25,1.86,37.1-.05,3.21-1.85A1.09,1.09,0,0,0,371,341Z"/><path class="cls-121" d="M367.73,349.69h5.81c1.17,0,2.13-.55,2.13-1.23V344.2c0-.67-1-1.22-2.13-1.22H369a2,2,0,0,1-1.67-.68,8.86,8.86,0,0,0-.52-.73c-.31-.39-.2-.85.33-1.16l3.21-1.85a.91.91,0,0,0,0-1.73l-5.24-3a3.3,3.3,0,0,0-3,0l-3.24,1.86a2.77,2.77,0,0,1-1.94.22c-.46-.12-1-.23-1.39-.33-.68-.15-1.11-.52-1.11-.94V332c0-.68-1-1.22-2.13-1.22h-7.41c-1.17,0-2.12.54-2.12,1.22v2.62c0,.43-.49.8-1.19.95-.45.1-.89.2-1.32.32a2.82,2.82,0,0,1-2-.19L335,333.85a3.33,3.33,0,0,0-3,0l-5.23,3a.91.91,0,0,0,0,1.73l3.25,1.86c.51.29.66.73.38,1.12s-.4.55-.56.8a2,2,0,0,1-1.64.64h-4.59c-1.17,0-2.12.55-2.12,1.22l0,4.26c0,.68,1,1.23,2.13,1.23h4.55a2,2,0,0,1,1.66.68,7.4,7.4,0,0,0,.53.72c.31.4.2.86-.33,1.17l-3.21,1.85c-.83.48-.83,1.25,0,1.73l5.24,3a3.36,3.36,0,0,0,3,0l3.23-1.87a2.77,2.77,0,0,1,1.94-.22c.46.12,1,.23,1.39.33.68.15,1.12.52,1.12.94v2.64c0,.67.95,1.22,2.13,1.22h7.4c1.18,0,2.13-.55,2.13-1.22v-2.62c0-.43.48-.8,1.19-1,.42-.09.84-.19,1.25-.3a2.87,2.87,0,0,1,2,.19l3.22,1.85a3.33,3.33,0,0,0,3,0l5.23-3a.91.91,0,0,0,0-1.73l-3.25-1.86c-.51-.3-.65-.74-.37-1.12C367.22,350.5,367.71,349.74,367.73,349.69Zm-29.47-4.43c1.24-3.77,8-5.9,14.11-4.54,4.63,1,7.45,3.91,6.54,6.71-1.23,3.77-8,5.9-14.11,4.54C340.17,351,337.35,348.07,338.26,345.26Z"/><path class="cls-124" d="M391.46,31.14a11.15,11.15,0,0,0,5,8.69l21.21,12.24c2.76,1.6,5,.29,5-2.9V24.69a11.16,11.16,0,0,0-5-8.7L396.48,3.75c-2.76-1.6-5-.29-5,2.9Z"/><path class="cls-125" d="M422.71,49.17V24.69a11.16,11.16,0,0,0-5-8.7L396.48,3.75A3.57,3.57,0,0,0,393,3.36h0L398.41.28a3.57,3.57,0,0,1,3.43.4L423,12.92a11.14,11.14,0,0,1,5,8.7V46.1a3.59,3.59,0,0,1-1.4,3.2l-5.41,3.1h0A3.53,3.53,0,0,0,422.71,49.17Z"/><path class="cls-4" d="M411.33,34.32l-4.24,2.45-4.24-7.34c-2.44.26-4.07,2.39-4.07,5.9l16.61,9.59A18.16,18.16,0,0,0,411.33,34.32Z"/><path class="cls-4" d="M407.09,29.65c3.34,1.93,6.06.36,6.06-3.5a13.41,13.41,0,0,0-6.06-10.5c-3.35-1.93-6.06-.36-6.06,3.5A13.41,13.41,0,0,0,407.09,29.65Z"/><path class="cls-126" d="M276.83,229.21a11.14,11.14,0,0,0,5,8.69l21.21,12.24c2.76,1.6,5,.29,5-2.89V222.76a11.16,11.16,0,0,0-5-8.7l-21.21-12.24c-2.76-1.59-5-.29-5,2.9Z"/><path class="cls-127" d="M308.08,247.25V222.76a11.16,11.16,0,0,0-5-8.7l-21.21-12.24a3.57,3.57,0,0,0-3.45-.39h0l5.38-3.08a3.59,3.59,0,0,1,3.43.4L308.41,211a11.11,11.11,0,0,1,5,8.69v24.49a3.58,3.58,0,0,1-1.4,3.19l-5.41,3.1h0A3.52,3.52,0,0,0,308.08,247.25Z"/><path class="cls-4" d="M288.59,218.37a3.72,3.72,0,0,1-1.34-1.74l-.79-2.26a3.58,3.58,0,0,0-1.34-1.73l-3-1.72c-.51-.3-.73,0-.49.66l.74,2a3.56,3.56,0,0,0,1.18,1.63,2.42,2.42,0,0,1,.91,1.58l1.41,10.1a2.59,2.59,0,0,0,1.09,1.68L298,235c.51.29,1,.1,1.08-.43l1.3-8.31a1.62,1.62,0,0,0-.77-1.51Z"/><path class="cls-4" d="M290,235.11c0,1.24-.88,1.75-1.95,1.12a4.29,4.29,0,0,1-1.95-3.37c0-1.25.87-1.75,1.95-1.13A4.34,4.34,0,0,1,290,235.11Z"/><path class="cls-4" d="M298,239.77c0,1.24-.87,1.75-1.95,1.12a4.29,4.29,0,0,1-1.95-3.37c0-1.25.87-1.75,1.95-1.13A4.31,4.31,0,0,1,298,239.77Z"/><path class="cls-128" d="M109.57,187.35a11.12,11.12,0,0,0,5,8.69l21.2,12.25c2.76,1.59,5,.29,5-2.9V180.9a11.12,11.12,0,0,0-5-8.69L114.59,160c-2.76-1.6-5-.29-5,2.89Z"/><path class="cls-129" d="M140.81,205.39V180.9a11.12,11.12,0,0,0-5-8.69L114.59,160a3.57,3.57,0,0,0-3.46-.4h0l5.38-3.08a3.6,3.6,0,0,1,3.43.41l21.21,12.24a11.14,11.14,0,0,1,5,8.69v24.49a3.6,3.6,0,0,1-1.4,3.2l-5.4,3.1h0A3.53,3.53,0,0,0,140.81,205.39Z"/><path class="cls-4" d="M124.92,171.88c-4.23-2.45-7.66-.47-7.66,4.42a18.29,18.29,0,0,0,1.82,6.95c1.84,4.27,5.84,14.17,5.84,14.17s4-5.27,5.84-7.43a7.32,7.32,0,0,0,1.82-4.84A16.94,16.94,0,0,0,124.92,171.88Zm0,13a9.22,9.22,0,0,1-4.17-7.22c0-2.66,1.87-3.74,4.17-2.41a9.22,9.22,0,0,1,4.17,7.22C129.09,185.12,127.22,186.19,124.92,184.86Z"/><path class="cls-8" d="M206.61,339.14a7.29,7.29,0,0,1,6.65,0l51.12,29.51c1.83,1.06,1.83,2.79,0,3.85L214,401.55a7.39,7.39,0,0,1-6.67,0l-50.39-29.09c-1.83-1.06-1.84-2.81,0-3.89Z"/><path class="cls-130" d="M206.64,339.32a7.22,7.22,0,0,1,6.6,0L264,368.58c1.82,1.05,1.82,2.77,0,3.83l-50,28.88a7.35,7.35,0,0,1-6.62,0l-50-28.88c-1.82-1.06-1.83-2.79,0-3.86Z"/><path class="cls-131" d="M206.67,339.5a7.17,7.17,0,0,1,6.55,0l50.4,29.09c1.8,1.05,1.8,2.76,0,3.8L213.94,401a7.33,7.33,0,0,1-6.58,0l-49.67-28.68c-1.81-1-1.82-2.77,0-3.83Z"/><path class="cls-132" d="M206.7,339.67a7.13,7.13,0,0,1,6.5,0l50,28.89c1.79,1,1.79,2.73,0,3.76l-49.33,28.48a7.2,7.2,0,0,1-6.52,0l-49.33-28.48c-1.79-1-1.8-2.74,0-3.8Z"/><path class="cls-133" d="M206.72,339.85a7.08,7.08,0,0,1,6.46,0l49.68,28.68c1.78,1,1.78,2.71,0,3.74l-49,28.27a7.18,7.18,0,0,1-6.48,0l-49-28.27c-1.78-1-1.79-2.73,0-3.78Z"/><path class="cls-134" d="M206.75,340a7,7,0,0,1,6.41,0l49.32,28.47c1.77,1,1.77,2.69,0,3.71l-48.61,28.07a7.16,7.16,0,0,1-6.44,0l-48.61-28.07c-1.77-1-1.78-2.71,0-3.75Z"/><path class="cls-135" d="M206.78,340.21a7,7,0,0,1,6.36,0l49,28.26c1.75,1,1.75,2.67,0,3.69L213.84,400a7.12,7.12,0,0,1-6.39,0L159.2,372.13c-1.76-1-1.77-2.69,0-3.73Z"/><path class="cls-136" d="M206.81,340.39a6.92,6.92,0,0,1,6.31,0l48.6,28.05c1.74,1,1.74,2.65,0,3.66l-47.9,27.66a7.07,7.07,0,0,1-6.34,0l-47.9-27.66c-1.75-1-1.76-2.67,0-3.69Z"/><path class="cls-137" d="M206.83,340.57a6.89,6.89,0,0,1,6.28,0l48.23,27.84c1.73,1,1.73,2.64,0,3.64l-47.55,27.45a7,7,0,0,1-6.29,0L160,372c-1.73-1-1.74-2.65,0-3.67Z"/><path class="cls-138" d="M206.86,340.75a6.84,6.84,0,0,1,6.23,0L261,368.35c1.72,1,1.72,2.62,0,3.61l-47.19,27.25a7,7,0,0,1-6.25,0L160.33,372c-1.72-1-1.73-2.63,0-3.64Z"/><path class="cls-139" d="M206.89,340.93a6.8,6.8,0,0,1,6.18,0l47.51,27.44c1.7,1,1.7,2.59,0,3.57l-46.84,27a6.82,6.82,0,0,1-6.19,0l-46.84-27c-1.71-1-1.71-2.61,0-3.61Z"/><path class="cls-140" d="M206.92,341.11a6.73,6.73,0,0,1,6.13,0L260.2,368.3c1.69,1,1.69,2.57,0,3.55l-46.48,26.83a6.8,6.8,0,0,1-6.15,0l-46.48-26.83c-1.69-1-1.7-2.59,0-3.59Z"/><path class="cls-141" d="M206.94,341.29a6.68,6.68,0,0,1,6.09,0l46.79,27c1.68,1,1.68,2.55,0,3.52l-46.13,26.63a6.76,6.76,0,0,1-6.1,0l-46.13-26.63c-1.67-1-1.68-2.57,0-3.56Z"/><path class="cls-142" d="M207,341.47a6.63,6.63,0,0,1,6,0l46.43,26.81c1.67,1,1.67,2.54,0,3.5l-45.77,26.42a6.74,6.74,0,0,1-6.06,0l-45.77-26.42c-1.66-1-1.67-2.55,0-3.53Z"/><path class="cls-143" d="M207,341.65a6.56,6.56,0,0,1,6,0l46.07,26.6c1.65,1,1.65,2.52,0,3.47L213.65,397.9a6.63,6.63,0,0,1-6,0l-45.42-26.22c-1.65-.95-1.66-2.53,0-3.5Z"/><path class="cls-144" d="M207,341.82a6.52,6.52,0,0,1,5.94,0l45.71,26.39c1.64.95,1.64,2.5,0,3.45l-45.06,26a6.59,6.59,0,0,1-6,0l-45.06-26c-1.64-.95-1.65-2.52,0-3.48Z"/><path class="cls-145" d="M207.05,342a6.49,6.49,0,0,1,5.9,0l45.35,26.18c1.63.94,1.63,2.48,0,3.42l-44.7,25.81a6.57,6.57,0,0,1-5.92,0L163,371.57c-1.63-.94-1.64-2.49,0-3.45Z"/><path class="cls-146" d="M207.08,342.18a6.42,6.42,0,0,1,5.85,0l45,26c1.62.93,1.62,2.45,0,3.38l-44.35,25.61a6.52,6.52,0,0,1-5.87,0l-44.35-25.61c-1.61-.93-1.62-2.47,0-3.42Z"/><path class="cls-147" d="M207.11,342.36a6.38,6.38,0,0,1,5.8,0l44.63,25.77c1.6.92,1.6,2.43,0,3.36l-44,25.4a6.48,6.48,0,0,1-5.82,0l-44-25.4c-1.6-.93-1.61-2.45,0-3.4Z"/><path class="cls-148" d="M207.14,342.54a6.3,6.3,0,0,1,5.75,0l44.27,25.56c1.59.92,1.59,2.42,0,3.33l-43.64,25.2a6.44,6.44,0,0,1-5.77,0l-43.64-25.2c-1.59-.91-1.6-2.43,0-3.36Z"/><path class="cls-149" d="M207.16,342.72a6.25,6.25,0,0,1,5.71,0L256.78,368c1.58.91,1.58,2.4,0,3.31l-43.28,25a6.35,6.35,0,0,1-5.73,0l-43.28-25c-1.58-.91-1.59-2.41,0-3.34Z"/><path class="cls-150" d="M207.19,342.9a6.21,6.21,0,0,1,5.66,0L256.4,368c1.57.9,1.57,2.38,0,3.28l-42.93,24.79a6.31,6.31,0,0,1-5.68,0l-42.93-24.79c-1.56-.9-1.57-2.39,0-3.31Z"/><path class="cls-151" d="M207.22,343.08a6.16,6.16,0,0,1,5.62,0L256,368c1.55.9,1.55,2.36,0,3.26l-42.57,24.58a6.27,6.27,0,0,1-5.63,0l-42.58-24.58c-1.55-.9-1.56-2.38,0-3.29Z"/><path class="cls-152" d="M207.25,343.26a6.08,6.08,0,0,1,5.57,0L255.64,368c1.54.89,1.54,2.34,0,3.23l-42.21,24.37a6.19,6.19,0,0,1-5.59,0l-42.22-24.37c-1.54-.89-1.54-2.35,0-3.26Z"/><path class="cls-153" d="M207.27,343.44a6.06,6.06,0,0,1,5.53,0l42.46,24.52c1.53.88,1.53,2.31,0,3.19L213.4,395.29a6.14,6.14,0,0,1-5.54,0L166,371.12c-1.53-.88-1.53-2.33,0-3.22Z"/><path class="cls-154" d="M207.3,343.62a6,6,0,0,1,5.48,0l42.11,24.31c1.51.87,1.51,2.3,0,3.17l-41.51,24a6.06,6.06,0,0,1-5.5,0l-41.5-24c-1.51-.87-1.52-2.31,0-3.2Z"/><path class="cls-155" d="M207.33,343.8a5.91,5.91,0,0,1,5.43,0l41.75,24.1c1.49.86,1.49,2.28,0,3.14l-41.16,23.76a6,6,0,0,1-5.44,0L166.75,371c-1.49-.86-1.5-2.29,0-3.17Z"/><path class="cls-156" d="M207.36,344a5.87,5.87,0,0,1,5.38,0l41.39,23.89c1.48.86,1.48,2.26,0,3.12l-40.8,23.55a6,6,0,0,1-5.4,0L167.13,371c-1.48-.86-1.49-2.28,0-3.15Z"/><path class="cls-157" d="M207.39,344.15a5.89,5.89,0,0,1,5.33,0l41,23.69c1.47.85,1.47,2.24,0,3.09L213.3,394.25a5.93,5.93,0,0,1-5.35,0L167.51,370.9c-1.47-.85-1.48-2.25,0-3.12Z"/><path class="cls-158" d="M207.41,344.33a5.84,5.84,0,0,1,5.29,0l40.67,23.48c1.46.85,1.46,2.22,0,3.07L213.28,394a5.91,5.91,0,0,1-5.31,0l-40.08-23.14c-1.46-.85-1.47-2.24,0-3.1Z"/><path class="cls-159" d="M207.44,344.51a5.76,5.76,0,0,1,5.24,0L253,367.75c1.44.84,1.44,2.21,0,3l-39.74,22.94a5.85,5.85,0,0,1-5.25,0l-39.74-22.94c-1.44-.83-1.45-2.21,0-3.06Z"/><path class="cls-160" d="M207.47,344.69a5.72,5.72,0,0,1,5.19,0l40,23.07c1.43.82,1.43,2.18,0,3l-39.38,22.74a5.76,5.76,0,0,1-5.21,0l-39.38-22.74c-1.43-.82-1.44-2.19,0-3Z"/><path class="cls-161" d="M207.5,344.87a5.65,5.65,0,0,1,5.14,0l39.59,22.86c1.42.82,1.42,2.16,0,3l-39,22.53a5.74,5.74,0,0,1-5.17,0l-39-22.53c-1.42-.82-1.43-2.18,0-3Z"/><path class="cls-162" d="M207.52,345.05a5.59,5.59,0,0,1,5.1,0l39.23,22.65c1.41.81,1.41,2.14,0,2.95L213.18,393a5.7,5.7,0,0,1-5.12,0L169.4,370.62c-1.41-.81-1.42-2.15,0-3Z"/><path class="cls-163" d="M207.55,345.23a5.55,5.55,0,0,1,5,0l38.87,22.44c1.39.81,1.39,2.12,0,2.93l-38.31,22.12a5.66,5.66,0,0,1-5.07,0l-38.31-22.12c-1.4-.81-1.41-2.14,0-3Z"/><path class="cls-164" d="M207.58,345.41a5.48,5.48,0,0,1,5,0l38.51,22.23c1.38.8,1.38,2.1,0,2.9l-38,21.92a5.61,5.61,0,0,1-5,0l-38-21.92c-1.38-.8-1.39-2.11,0-2.93Z"/><path class="cls-165" d="M207.61,345.59a5.43,5.43,0,0,1,5,0l38.14,22c1.37.79,1.37,2.09,0,2.88l-37.6,21.71a5.53,5.53,0,0,1-5,0l-37.6-21.71c-1.37-.79-1.37-2.1,0-2.9Z"/><path class="cls-166" d="M207.63,345.77a5.4,5.4,0,0,1,4.92,0l37.78,21.81c1.36.79,1.36,2.07,0,2.85l-37.25,21.5a5.42,5.42,0,0,1-4.93,0l-37.24-21.5c-1.36-.78-1.36-2.08,0-2.87Z"/><path class="cls-167" d="M207.66,346a5.33,5.33,0,0,1,4.87,0L250,367.53c1.34.77,1.34,2,0,2.81l-36.89,21.3a5.38,5.38,0,0,1-4.88,0l-36.89-21.3c-1.35-.77-1.35-2,0-2.84Z"/><path class="cls-168" d="M207.69,346.13a5.26,5.26,0,0,1,4.82,0l37.06,21.4c1.33.77,1.33,2,0,2.79L213,391.38a5.34,5.34,0,0,1-4.83,0l-36.54-21.09a1.5,1.5,0,0,1,0-2.82Z"/><path class="cls-169" d="M207.72,346.3a5.24,5.24,0,0,1,4.77,0l36.7,21.19c1.32.76,1.32,2,0,2.76L213,391.12a5.32,5.32,0,0,1-4.79,0L172,370.23c-1.31-.76-1.32-2,0-2.79Z"/><path class="cls-120" d="M207.74,346.48a5.22,5.22,0,0,1,4.73,0l36.34,21c1.31.75,1.31,2,0,2.74L213,390.86a5.27,5.27,0,0,1-4.74,0l-35.83-20.68a1.47,1.47,0,0,1,0-2.77Z"/><path class="cls-120" d="M207.15,342.06a6.07,6.07,0,0,1,5.55,0l42.67,24.63c1.53.89,1.53,2.33,0,3.22l-42.06,24.29a6.21,6.21,0,0,1-5.57,0l-42.07-24.29c-1.53-.89-1.53-2.35,0-3.25Z"/><path class="cls-121" d="M255.37,366.66,212.7,342a6.07,6.07,0,0,0-5.55,0l-4.86,2.88,48.14,27.79,4.94-2.85C256.9,369,256.9,367.55,255.37,366.66Z"/><path class="cls-170" d="M212.65,346.58c.62-.36.62-.94,0-1.29a2.46,2.46,0,0,0-2.24,0,.68.68,0,0,0,0,1.29A2.52,2.52,0,0,0,212.65,346.58Z"/><path class="cls-170" d="M216.24,348.86a.68.68,0,0,0,0-1.29,2.46,2.46,0,0,0-2.24,0c-.62.35-.62.93,0,1.29A2.52,2.52,0,0,0,216.24,348.86Z"/><path class="cls-170" d="M219.82,351c.62-.36.62-.94,0-1.29a2.46,2.46,0,0,0-2.24,0,.68.68,0,0,0,0,1.29A2.52,2.52,0,0,0,219.82,351Z"/><path class="cls-171" d="M255.37,368.27l-42.06,24.29a6.21,6.21,0,0,1-5.57,0l-42.07-24.29a2.55,2.55,0,0,1-.89-.82c-.52.82-.23,1.78.89,2.43l42.07,24.29a6.21,6.21,0,0,0,5.57,0l42.06-24.29c1.13-.65,1.42-1.6.89-2.41A2.51,2.51,0,0,1,255.37,368.27Z"/><polygon class="cls-4" points="208.8 352.12 206.5 353.45 218.22 360.28 220.57 358.92 208.8 352.12"/><polygon class="cls-4" points="203.35 374.06 201.05 375.39 212.76 382.22 215.12 380.86 203.35 374.06"/><polygon class="cls-172" points="190.37 366.45 188.08 367.78 199.79 374.61 202.14 373.25 190.37 366.45"/><polygon class="cls-4" points="214.81 360.57 212.52 361.9 224.23 368.73 226.58 367.37 214.81 360.57"/><polygon class="cls-4" points="200.85 357.38 198.56 358.7 225.88 374.66 228.24 373.3 200.85 357.38"/><polygon class="cls-4" points="179.29 370.08 176.99 371.41 207.02 388.83 209.38 387.47 179.29 370.08"/><polygon class="cls-173" points="208.38 356.77 206.09 358.09 210.76 360.84 213.12 359.49 208.38 356.77"/><polygon class="cls-4" points="205.28 370.18 202.99 371.5 207.67 374.25 210.02 372.89 205.28 370.18"/><polygon class="cls-4" points="229.22 374.06 226.93 375.39 231.6 378.14 233.96 376.78 229.22 374.06"/><polygon class="cls-4" points="210 367.83 207.71 369.15 217.93 375.13 220.28 373.78 210 367.83"/><polygon class="cls-174" points="204.13 364.35 201.83 365.68 206.51 368.43 208.87 367.07 204.13 364.35"/><polygon class="cls-175" points="205.28 380.18 202.99 381.5 207.67 384.26 210.02 382.9 205.28 380.18"/><polygon class="cls-4" points="192.56 372.74 190.27 374.07 200.5 380.05 202.85 378.69 192.56 372.74"/><polygon class="cls-4" points="183.77 367.67 181.47 368.99 189.08 373.34 191.43 371.98 183.77 367.67"/><polygon class="cls-4" points="198.48 360.99 196.19 362.32 200.87 365.07 203.22 363.71 198.48 360.99"/><polygon class="cls-4" points="222.86 360.28 220.57 361.6 239.4 372.5 241.75 371.14 222.86 360.28"/><polygon class="cls-4" points="192.58 362.46 190.28 363.79 201.56 370.53 203.91 369.17 192.58 362.46"/><polygon class="cls-4" points="201.69 347.86 199.39 349.19 202.64 351.1 204.99 349.74 201.69 347.86"/><polygon class="cls-4" points="197.4 350.39 195.11 351.71 198.35 353.62 200.71 352.26 197.4 350.39"/><polygon class="cls-4" points="193.12 352.92 190.82 354.24 194.07 356.15 196.42 354.79 193.12 352.92"/><polygon class="cls-4" points="188.83 355.44 186.54 356.77 189.79 358.68 192.14 357.32 188.83 355.44"/><polygon class="cls-4" points="184.55 357.97 182.26 359.3 185.5 361.21 187.85 359.85 184.55 357.97"/><polygon class="cls-4" points="180.27 360.5 177.97 361.83 181.22 363.74 183.57 362.38 180.27 360.5"/><polygon class="cls-4" points="175.98 363.03 173.69 364.36 176.93 366.27 179.29 364.91 175.98 363.03"/><polygon class="cls-4" points="171.7 365.56 169.4 366.88 172.65 368.8 175 367.44 171.7 365.56"/><path class="cls-176" d="M0,187.21a11.75,11.75,0,0,0,5.28,9.16l16.39,9.46c2.91,1.68,5.29.3,5.29-3.05V183.86a11.73,11.73,0,0,0-5.29-9.16L5.28,165.24c-2.9-1.67-5.28-.3-5.28,3Z"/><path class="cls-176" d="M409.19,176.08a11.73,11.73,0,0,0,5.29,9.16l16.38,9.46c2.91,1.67,5.29.3,5.29-3.06V172.72a11.74,11.74,0,0,0-5.28-9.15l-16.39-9.46c-2.91-1.68-5.29-.31-5.29,3Z"/><path class="cls-176" d="M37.64,151.5a6,6,0,0,0,2.71,4.7l8.42,4.86c1.49.86,2.71.15,2.71-1.57v-9.72a6,6,0,0,0-2.71-4.7l-8.42-4.86c-1.49-.86-2.71-.15-2.71,1.57Z"/><path class="cls-176" d="M421.14,306.88a6,6,0,0,0,2.72,4.7l8.41,4.86c1.5.86,2.72.16,2.72-1.57v-9.71a6,6,0,0,0-2.72-4.71l-8.41-4.85c-1.5-.87-2.72-.16-2.72,1.56Z"/><path class="cls-176" d="M351.7,24.3a6,6,0,0,0,2.72,4.7l8.41,4.86c1.49.86,2.72.16,2.72-1.57V22.58a6,6,0,0,0-2.72-4.7L354.42,13c-1.5-.87-2.72-.16-2.72,1.56Z"/><path class="cls-176" d="M51.48,108.81a6.53,6.53,0,0,0,3,5.1l9.13,5.28c1.62.93,3,.17,3-1.7V106.94a6.53,6.53,0,0,0-3-5.1l-9.13-5.28c-1.62-.93-3-.17-3,1.7Z"/><path class="cls-176" d="M318.12,344.47c2.7,1.56,2.7,4.11,0,5.67l-20.74,12a10.89,10.89,0,0,1-9.82,0l-20.74-12c-2.7-1.56-2.7-4.11,0-5.67l20.74-12a10.89,10.89,0,0,1,9.82,0Z"/></g></g></g></svg>