<svg id="flat" height="512" viewBox="0 0 512 512" width="512" xmlns="http://www.w3.org/2000/svg"><path d="m48 72h416v400a16 16 0 0 1 -16 16h-384a16 16 0 0 1 -16-16z" fill="#8760e6"/><path d="m96 120h320v184h-320z" fill="#7148db"/><path d="m360 304h-208l8.66992-31.78 7.29-26.74a39.9967 39.9967 0 0 1 38.59013-29.48h98.89995a39.9967 39.9967 0 0 1 38.59 29.48l7.3 26.78z" fill="#02c26a"/><path d="m206.59 287.53-6.59 16.47h-48l8.67-31.78z" fill="#ffceb6"/><path d="m360 304h-48v-16l39.34-15.74z" fill="#ffceb6"/><path d="m96 352.97057a16.97054 16.97054 0 0 1 16.97055-16.97057 16.97054 16.97054 0 0 1 12 4.97056l3.02945 3.02944 3.02944-3.02944a16.97054 16.97054 0 0 1 12-4.97056 16.97054 16.97054 0 0 1 16.97056 16.97055 16.97054 16.97054 0 0 1 -4.97056 12l-27.02944 27.02945-27.02944-27.02944a16.97054 16.97054 0 0 1 -4.97056-11.99999z" fill="#f5714f"/><g fill="#7148db"><circle cx="184" cy="376" r="8"/><circle cx="208" cy="376" r="8"/><circle cx="232" cy="376" r="8"/></g><circle cx="128" cy="440" fill="#b89dfa" r="16"/><path d="m176 432h16v16h-16z" fill="#7148db"/><path d="m208 432h80v16h-80z" fill="#7148db"/><rect fill="#00b55b" height="16" rx="8" transform="matrix(.371 -.928 .928 .371 -123.226 369.507)" width="25.342" x="198.623" y="267.765"/><rect fill="#00b55b" height="32" rx="8" width="16" x="304" y="256"/><path d="m272 200v28a20.26518 20.26518 0 0 1 -.3999 4 20.0023 20.0023 0 0 1 -39.6001-4v-28z" fill="#ffceb6"/><path d="m272 200v28a20.26518 20.26518 0 0 1 -.3999 4h-11.6001a19.99443 19.99443 0 0 1 -20-20v-12z" fill="#ffbfa1"/><path d="m256 224a24 24 0 0 1 -24-24v-8l16-16h32v24a24 24 0 0 1 -24 24z" fill="#ffceb6"/><path d="m280 176 6.63344-13.26688a12.94424 12.94424 0 0 0 1.36656-5.78885 12.94426 12.94426 0 0 0 -12.94426-12.94427h-19.05574a24 24 0 0 0 -24 24v24l16-16z" fill="#c47220"/><path d="m48 72v-32a16 16 0 0 1 16-16h384a16 16 0 0 1 16 16v32z" fill="#a88af2"/><circle cx="80" cy="48" fill="#fa8669" r="8"/><circle cx="104" cy="48" fill="#ffc431" r="8"/><circle cx="128" cy="48" fill="#08d175" r="8"/></svg>